<svg xmlns="http://www.w3.org/2000/svg" viewBox="0 0 1053.92 48.76"><defs><style>.cls-1{fill:#2d2d2d;}.cls-2{fill:#efefef;}</style></defs><g id="Layer_2" data-name="Layer 2"><g id="Layer_1-2" data-name="Layer 1"><rect class="cls-1" width="1053.92" height="48.76" rx="4.18"/><path class="cls-2" d="M18,32.8l3.77-18.86H29a8.19,8.19,0,0,1,5.29,1.51,5.08,5.08,0,0,1,1.88,4.18,7.66,7.66,0,0,1-1.09,4.13A7.09,7.09,0,0,1,32,26.43a11.42,11.42,0,0,1-4.8.93H21.05l1.86-1.67L21.49,32.8Zm4.85-6.71L21.59,24.4h5.74a6.1,6.1,0,0,0,3.94-1.14A4,4,0,0,0,32.67,20a2.65,2.65,0,0,0-1-2.29,5,5,0,0,0-3-.75H23.18L25,15.15Z"/><path class="cls-2" d="M36.82,32.8l2.85-14.38h3.21l-.81,4.09-.3-1.19a5.44,5.44,0,0,1,2.54-2.41,9.45,9.45,0,0,1,3.74-.66l-.62,3.21a3.38,3.38,0,0,0-.4-.07H46.6a5.05,5.05,0,0,0-3.26,1,5.3,5.3,0,0,0-1.73,3.3L40.19,32.8Z"/><path class="cls-2" d="M55.09,33a8.29,8.29,0,0,1-3.75-.79A5.94,5.94,0,0,1,48.88,30,6.15,6.15,0,0,1,48,26.66a8.6,8.6,0,0,1,1.08-4.34,7.86,7.86,0,0,1,3-3,8.3,8.3,0,0,1,4.27-1.1,7.56,7.56,0,0,1,3.5.76,5.42,5.42,0,0,1,2.3,2.17,6.59,6.59,0,0,1,.83,3.38,9.51,9.51,0,0,1-.06,1.05,7.21,7.21,0,0,1-.16,1H50.5l.38-2.24H61.12l-1.37.75a4.12,4.12,0,0,0-.19-2.29,2.9,2.9,0,0,0-1.3-1.4A4.4,4.4,0,0,0,56.14,21a4.82,4.82,0,0,0-2.58.68,4.46,4.46,0,0,0-1.68,1.95,6.65,6.65,0,0,0-.59,2.92,3.47,3.47,0,0,0,1,2.69,4.44,4.44,0,0,0,3.13.95,6.66,6.66,0,0,0,2.32-.4,5.12,5.12,0,0,0,1.84-1.08L61,31a7.5,7.5,0,0,1-2.69,1.49A10.17,10.17,0,0,1,55.09,33Z"/><path class="cls-2" d="M63.49,38,67.4,18.42h3.2L70,21.7l-.89,3.83-.49,3.85L66.86,38Zm9.75-5a6.9,6.9,0,0,1-3.12-.66,4.39,4.39,0,0,1-2-2,6.61,6.61,0,0,1-.62-3.25,11.46,11.46,0,0,1,1-4.69,7.13,7.13,0,0,1,2.57-3.08,7,7,0,0,1,4-1.1,6.89,6.89,0,0,1,3.2.74,5.71,5.71,0,0,1,2.28,2.16,6.46,6.46,0,0,1,.85,3.41,9,9,0,0,1-.61,3.37A7.8,7.8,0,0,1,79,30.59a7.88,7.88,0,0,1-2.57,1.77A8,8,0,0,1,73.24,33ZM73,30.11a4.74,4.74,0,0,0,2.56-.69,4.94,4.94,0,0,0,1.75-1.9,5.84,5.84,0,0,0,.64-2.8,3.54,3.54,0,0,0-1-2.64,3.85,3.85,0,0,0-2.81-1,4.77,4.77,0,0,0-4.31,2.59,5.84,5.84,0,0,0-.64,2.8,3.54,3.54,0,0,0,1,2.64A3.9,3.9,0,0,0,73,30.11Z"/><path class="cls-2" d="M89.49,33a6.82,6.82,0,0,1-3.19-.75A5.76,5.76,0,0,1,84,30.07a6.46,6.46,0,0,1-.85-3.41,9,9,0,0,1,.61-3.37,7.84,7.84,0,0,1,4.28-4.42,8.25,8.25,0,0,1,3.22-.62,7,7,0,0,1,3.12.65,4.39,4.39,0,0,1,2,2A6.73,6.73,0,0,1,97,24.1a11.6,11.6,0,0,1-1,4.67,7.34,7.34,0,0,1-2.55,3.12A7,7,0,0,1,89.49,33Zm.87-2.88a4.68,4.68,0,0,0,2.55-.69,5,5,0,0,0,1.76-1.9,5.84,5.84,0,0,0,.64-2.8,3.5,3.5,0,0,0-1-2.64,3.8,3.8,0,0,0-2.79-1A4.77,4.77,0,0,0,87.2,23.7a5.84,5.84,0,0,0-.64,2.8,3.54,3.54,0,0,0,1,2.64A3.9,3.9,0,0,0,90.36,30.11Zm3.52,2.69.65-3.28.92-3.83.46-3.85.67-3.42H100L97.09,32.8Z"/><path class="cls-2" d="M101.51,32.8l2.86-14.38h3.2l-.81,4.09-.29-1.19A5.42,5.42,0,0,1,109,18.91a9.46,9.46,0,0,1,3.75-.66l-.62,3.21a3.52,3.52,0,0,0-.41-.07h-.43a5.05,5.05,0,0,0-3.26,1,5.29,5.29,0,0,0-1.72,3.3l-1.43,7.08Z"/><path class="cls-2" d="M119.78,33A8.29,8.29,0,0,1,116,32.2,5.94,5.94,0,0,1,113.57,30a6.15,6.15,0,0,1-.88-3.33,8.6,8.6,0,0,1,1.08-4.34,7.86,7.86,0,0,1,3-3,8.3,8.3,0,0,1,4.27-1.1,7.5,7.5,0,0,1,3.5.76,5.5,5.5,0,0,1,2.31,2.17,6.59,6.59,0,0,1,.82,3.38c0,.34,0,.69-.05,1.05a9,9,0,0,1-.17,1H115.2l.38-2.24h10.24l-1.38.75a4.12,4.12,0,0,0-.19-2.29,2.92,2.92,0,0,0-1.29-1.4,4.44,4.44,0,0,0-2.13-.48,4.76,4.76,0,0,0-2.57.68,4.55,4.55,0,0,0-1.69,1.95A6.79,6.79,0,0,0,116,26.5a3.51,3.51,0,0,0,1,2.69,4.47,4.47,0,0,0,3.14.95,6.7,6.7,0,0,0,2.32-.4,5.16,5.16,0,0,0,1.83-1.08l1.4,2.34A7.46,7.46,0,0,1,123,32.49,10.23,10.23,0,0,1,119.78,33Z"/><path class="cls-2" d="M137.05,38.22a6.58,6.58,0,0,1-2.11-.35,4.45,4.45,0,0,1-1.66-.92L135,34.5a3.84,3.84,0,0,0,1,.66,3.25,3.25,0,0,0,1.33.26,2.57,2.57,0,0,0,1.49-.45,4.8,4.8,0,0,0,1.34-1.52l1.27-2,.32-.35,7.92-12.71H153l-9.92,15.65a14.59,14.59,0,0,1-1.91,2.48,5.44,5.44,0,0,1-1.9,1.29A6.32,6.32,0,0,1,137.05,38.22Zm3.69-4.9-3.53-14.9h3.37l2.83,12.42Z"/><path class="cls-2" d="M159,33a8,8,0,0,1-3.68-.79A6,6,0,0,1,152.84,30a6.23,6.23,0,0,1-.86-3.33,8.43,8.43,0,0,1,1.1-4.33,8,8,0,0,1,3-3,8.8,8.8,0,0,1,4.41-1.1,8.37,8.37,0,0,1,3.7.77,5.69,5.69,0,0,1,2.44,2.18,6.29,6.29,0,0,1,.86,3.36,8.43,8.43,0,0,1-1.1,4.31,8.13,8.13,0,0,1-3,3A8.82,8.82,0,0,1,159,33Zm.21-2.88a4.74,4.74,0,0,0,2.56-.69,4.87,4.87,0,0,0,1.75-1.9,5.85,5.85,0,0,0,.65-2.8,3.5,3.5,0,0,0-1-2.64,3.83,3.83,0,0,0-2.8-1A4.74,4.74,0,0,0,156,23.7a5.85,5.85,0,0,0-.65,2.8,3.47,3.47,0,0,0,1,2.65A3.87,3.87,0,0,0,159.17,30.11Z"/><path class="cls-2" d="M175.39,33a5.89,5.89,0,0,1-3.08-.76A4.22,4.22,0,0,1,170.49,30a6.6,6.6,0,0,1-.11-3.6l1.59-8h3.37l-1.59,7.89a3.55,3.55,0,0,0,.34,2.73,2.68,2.68,0,0,0,2.41,1,4.54,4.54,0,0,0,3-1,5.15,5.15,0,0,0,1.63-3.12l1.51-7.46H186L183.15,32.8h-3.21l.81-4.09.54,1.29a6.27,6.27,0,0,1-2.57,2.27A7.79,7.79,0,0,1,175.39,33Z"/><path class="cls-2" d="M187.57,32.8l2.86-14.38h3.2l-.8,4.09-.3-1.19a5.42,5.42,0,0,1,2.53-2.41,9.46,9.46,0,0,1,3.75-.66l-.62,3.21a3.52,3.52,0,0,0-.41-.07h-.43a5.05,5.05,0,0,0-3.26,1,5.29,5.29,0,0,0-1.72,3.3l-1.43,7.08Z"/><path class="cls-2" d="M206.32,32.8l4-20h3.37l-4,20Z"/><path class="cls-2" d="M221.33,33a8.29,8.29,0,0,1-3.75-.79A6,6,0,0,1,215.12,30a6.24,6.24,0,0,1-.88-3.33,8.6,8.6,0,0,1,1.08-4.34,7.86,7.86,0,0,1,3-3,8.3,8.3,0,0,1,4.27-1.1,7.57,7.57,0,0,1,3.51.76,5.53,5.53,0,0,1,2.3,2.17,6.59,6.59,0,0,1,.82,3.38c0,.34,0,.69,0,1.05a9.11,9.11,0,0,1-.16,1H216.75l.38-2.24h10.24l-1.38.75a4,4,0,0,0-.19-2.29,2.92,2.92,0,0,0-1.29-1.4,4.41,4.41,0,0,0-2.13-.48,4.76,4.76,0,0,0-2.57.68,4.55,4.55,0,0,0-1.69,1.95,6.79,6.79,0,0,0-.59,2.92,3.51,3.51,0,0,0,1,2.69,4.48,4.48,0,0,0,3.14.95,6.7,6.7,0,0,0,2.32-.4,5.16,5.16,0,0,0,1.83-1.08l1.4,2.34a7.46,7.46,0,0,1-2.68,1.49A10.23,10.23,0,0,1,221.33,33Z"/><path class="cls-2" d="M237.25,33a6.82,6.82,0,0,1-3.19-.75,5.76,5.76,0,0,1-2.29-2.17,6.56,6.56,0,0,1-.85-3.41,9.22,9.22,0,0,1,.61-3.37,7.84,7.84,0,0,1,4.28-4.42,8.29,8.29,0,0,1,3.22-.62,6.9,6.9,0,0,1,3.11.65,4.32,4.32,0,0,1,2,2,6.73,6.73,0,0,1,.62,3.25,11.77,11.77,0,0,1-1,4.67,7.36,7.36,0,0,1-2.56,3.12A7,7,0,0,1,237.25,33Zm.87-2.88a4.74,4.74,0,0,0,2.56-.69,4.94,4.94,0,0,0,1.75-1.9,5.84,5.84,0,0,0,.64-2.8,3.54,3.54,0,0,0-1-2.64,3.85,3.85,0,0,0-2.81-1A4.74,4.74,0,0,0,235,23.7a5.85,5.85,0,0,0-.65,2.8,3.54,3.54,0,0,0,1,2.64A3.91,3.91,0,0,0,238.12,30.11Zm3.53,2.69.64-3.28.92-3.83.46-3.85.67-3.42h3.37L244.85,32.8Z"/><path class="cls-2" d="M254.18,33a12.88,12.88,0,0,1-3.53-.46,8,8,0,0,1-2.54-1.1l1.41-2.59a7.37,7.37,0,0,0,2.22,1,9.9,9.9,0,0,0,2.79.39,5,5,0,0,0,2.46-.46,1.4,1.4,0,0,0,.8-1.26,1,1,0,0,0-.57-.89,5.89,5.89,0,0,0-1.44-.49l-1.89-.4a9.83,9.83,0,0,1-1.88-.59A3.46,3.46,0,0,1,250.57,25,3,3,0,0,1,250,23.1a4.08,4.08,0,0,1,.86-2.61,5.5,5.5,0,0,1,2.41-1.66,10.36,10.36,0,0,1,3.57-.58,12.42,12.42,0,0,1,2.86.33,7.3,7.3,0,0,1,2.32.91l-1.24,2.59a6.37,6.37,0,0,0-2.09-.86,10.37,10.37,0,0,0-2.17-.24,4.72,4.72,0,0,0-2.44.49,1.46,1.46,0,0,0-.79,1.26,1,1,0,0,0,.56.91,5.44,5.44,0,0,0,1.44.53c.59.13,1.22.27,1.89.4a10.15,10.15,0,0,1,1.89.58,3.73,3.73,0,0,1,1.44,1.09,3,3,0,0,1,.56,1.9,4.15,4.15,0,0,1-.87,2.66,5.41,5.41,0,0,1-2.44,1.64A10.68,10.68,0,0,1,254.18,33Z"/><path class="cls-2" d="M273.85,18.25A6,6,0,0,1,277,19a4.1,4.1,0,0,1,1.82,2.22,6.6,6.6,0,0,1,.11,3.6l-1.59,8H274l1.57-7.89a3.54,3.54,0,0,0-.33-2.74,2.77,2.77,0,0,0-2.45-1,4.61,4.61,0,0,0-3.07,1A5.39,5.39,0,0,0,268,25.34l-1.5,7.46h-3.37l4-20h3.37l-1.94,9.7-.71-1.29A6.05,6.05,0,0,1,270.44,19,8,8,0,0,1,273.85,18.25Z"/><path class="cls-2" d="M288.85,33a8.28,8.28,0,0,1-3.74-.79A6,6,0,0,1,282.64,30a6.24,6.24,0,0,1-.87-3.33,8.7,8.7,0,0,1,1.07-4.34,7.93,7.93,0,0,1,3-3,8.33,8.33,0,0,1,4.27-1.1,7.57,7.57,0,0,1,3.51.76,5.48,5.48,0,0,1,2.3,2.17,6.59,6.59,0,0,1,.82,3.38,9.45,9.45,0,0,1-.05,1.05,9.11,9.11,0,0,1-.16,1H284.27l.38-2.24h10.24l-1.37.75a4.12,4.12,0,0,0-.19-2.29,2.9,2.9,0,0,0-1.3-1.4A4.41,4.41,0,0,0,289.9,21a4.81,4.81,0,0,0-2.57.68,4.46,4.46,0,0,0-1.68,1.95,6.65,6.65,0,0,0-.6,2.92,3.48,3.48,0,0,0,1,2.69,4.47,4.47,0,0,0,3.14.95,6.68,6.68,0,0,0,2.31-.4,5,5,0,0,0,1.83-1.08l1.4,2.34a7.38,7.38,0,0,1-2.68,1.49A10.18,10.18,0,0,1,288.85,33Z"/><path class="cls-2" d="M303.22,33a13,13,0,0,1-3.54-.46,7.93,7.93,0,0,1-2.53-1.1l1.4-2.59a7.55,7.55,0,0,0,2.23,1,9.83,9.83,0,0,0,2.78.39,5.05,5.05,0,0,0,2.47-.46,1.39,1.39,0,0,0,.79-1.26.94.94,0,0,0-.56-.89,5.89,5.89,0,0,0-1.44-.49l-1.89-.4a9.83,9.83,0,0,1-1.88-.59A3.55,3.55,0,0,1,299.6,25,3.11,3.11,0,0,1,299,23.1a4.08,4.08,0,0,1,.86-2.61,5.5,5.5,0,0,1,2.41-1.66,10.32,10.32,0,0,1,3.57-.58,12.49,12.49,0,0,1,2.86.33,7.3,7.3,0,0,1,2.32.91l-1.24,2.59a6.46,6.46,0,0,0-2.09-.86,10.37,10.37,0,0,0-2.17-.24,4.72,4.72,0,0,0-2.44.49,1.46,1.46,0,0,0-.79,1.26,1,1,0,0,0,.56.91,5.44,5.44,0,0,0,1.44.53c.59.13,1.22.27,1.89.4a9.82,9.82,0,0,1,1.88.58,3.69,3.69,0,0,1,1.45,1.09,3,3,0,0,1,.56,1.9,4.15,4.15,0,0,1-.87,2.66,5.41,5.41,0,0,1-2.44,1.64A10.68,10.68,0,0,1,303.22,33Z"/><path class="cls-2" d="M313.56,33a2,2,0,0,1-1.49-.59,2,2,0,0,1-.61-1.51,2.23,2.23,0,0,1,.7-1.71,2.33,2.33,0,0,1,1.64-.66,2,2,0,0,1,2.08,2.1,2.38,2.38,0,0,1-1.17,2.08A2.39,2.39,0,0,1,313.56,33Z"/><path class="cls-2" d="M323.85,32.8l12.26-18.86h3.48l4.69,18.86H340.8l-3.93-17h1.4l-10.67,17Zm4.8-4.36,1.48-2.75h10.16l.46,2.75Z"/><path class="cls-2" d="M346.38,32.8l2.86-14.38h3.2l-.81,4.09-.29-1.19a5.42,5.42,0,0,1,2.53-2.41,9.46,9.46,0,0,1,3.75-.66L357,21.46a3.52,3.52,0,0,0-.41-.07h-.43a5.05,5.05,0,0,0-3.26,1,5.29,5.29,0,0,0-1.72,3.3l-1.43,7.08Z"/><path class="cls-2" d="M364.65,33a8.29,8.29,0,0,1-3.75-.79A5.94,5.94,0,0,1,358.44,30a6.15,6.15,0,0,1-.88-3.33,8.6,8.6,0,0,1,1.08-4.34,7.86,7.86,0,0,1,2.95-3,8.3,8.3,0,0,1,4.27-1.1,7.5,7.5,0,0,1,3.5.76,5.5,5.5,0,0,1,2.31,2.17,6.59,6.59,0,0,1,.82,3.38c0,.34,0,.69-.05,1.05a7.17,7.17,0,0,1-.17,1h-12.2l.38-2.24h10.23l-1.37.75a4.12,4.12,0,0,0-.19-2.29,2.92,2.92,0,0,0-1.29-1.4A4.44,4.44,0,0,0,365.7,21a4.76,4.76,0,0,0-2.57.68,4.55,4.55,0,0,0-1.69,1.95,6.79,6.79,0,0,0-.59,2.92,3.51,3.51,0,0,0,1,2.69,4.47,4.47,0,0,0,3.14.95,6.6,6.6,0,0,0,2.31-.4,5.12,5.12,0,0,0,1.84-1.08l1.4,2.34a7.46,7.46,0,0,1-2.68,1.49A10.27,10.27,0,0,1,364.65,33Z"/><path class="cls-2" d="M381.92,38.22a6.73,6.73,0,0,1-2.12-.35,4.48,4.48,0,0,1-1.65-.92l1.67-2.45a3.84,3.84,0,0,0,1,.66,3.22,3.22,0,0,0,1.33.26,2.57,2.57,0,0,0,1.49-.45A4.92,4.92,0,0,0,385,33.45l1.26-2,.33-.35,7.92-12.71h3.37L388,34.07a14.59,14.59,0,0,1-1.91,2.48,5.53,5.53,0,0,1-1.9,1.29A6.28,6.28,0,0,1,381.92,38.22Zm3.69-4.9-3.53-14.9h3.37l2.83,12.42Z"/><path class="cls-2" d="M403.82,33a8.06,8.06,0,0,1-3.67-.79A5.89,5.89,0,0,1,397.71,30a6.23,6.23,0,0,1-.86-3.33,8.53,8.53,0,0,1,1.1-4.33,8,8,0,0,1,3-3,8.77,8.77,0,0,1,4.41-1.1,8.37,8.37,0,0,1,3.7.77,5.75,5.75,0,0,1,2.44,2.18,6.29,6.29,0,0,1,.86,3.36,8.43,8.43,0,0,1-1.1,4.31,8.13,8.13,0,0,1-3,3A8.83,8.83,0,0,1,403.82,33Zm.22-2.88a4.74,4.74,0,0,0,2.56-.69,4.87,4.87,0,0,0,1.75-1.9,5.85,5.85,0,0,0,.65-2.8,3.5,3.5,0,0,0-1-2.64,3.83,3.83,0,0,0-2.8-1,4.74,4.74,0,0,0-4.31,2.59,5.85,5.85,0,0,0-.65,2.8,3.47,3.47,0,0,0,1,2.65A3.87,3.87,0,0,0,404,30.11Z"/><path class="cls-2" d="M420.26,33a6,6,0,0,1-3.09-.76A4.27,4.27,0,0,1,415.35,30a6.7,6.7,0,0,1-.1-3.6l1.59-8h3.37l-1.59,7.89A3.6,3.6,0,0,0,419,29a2.69,2.69,0,0,0,2.41,1,4.55,4.55,0,0,0,3-1A5.21,5.21,0,0,0,426,25.88l1.51-7.46h3.34L428,32.8h-3.21l.81-4.09.54,1.29a6.27,6.27,0,0,1-2.57,2.27A7.82,7.82,0,0,1,420.26,33Z"/><path class="cls-2" d="M439.88,32.8l2.85-14.38h3.21l-.81,4.09-.3-1.19a5.44,5.44,0,0,1,2.54-2.41,9.45,9.45,0,0,1,3.74-.66l-.62,3.21a3.38,3.38,0,0,0-.4-.07h-.43a5.05,5.05,0,0,0-3.26,1,5.3,5.3,0,0,0-1.73,3.3l-1.42,7.08Z"/><path class="cls-2" d="M458.15,33a8.29,8.29,0,0,1-3.75-.79A5.94,5.94,0,0,1,451.94,30a6.15,6.15,0,0,1-.88-3.33,8.6,8.6,0,0,1,1.08-4.34,7.86,7.86,0,0,1,2.95-3,8.3,8.3,0,0,1,4.27-1.1,7.56,7.56,0,0,1,3.5.76,5.42,5.42,0,0,1,2.3,2.17,6.59,6.59,0,0,1,.83,3.38,9.51,9.51,0,0,1-.06,1.05,7.21,7.21,0,0,1-.16,1H453.56l.38-2.24h10.24l-1.37.75a4.12,4.12,0,0,0-.19-2.29,2.9,2.9,0,0,0-1.3-1.4A4.4,4.4,0,0,0,459.2,21a4.82,4.82,0,0,0-2.58.68,4.46,4.46,0,0,0-1.68,1.95,6.65,6.65,0,0,0-.59,2.92,3.47,3.47,0,0,0,1,2.69,4.44,4.44,0,0,0,3.13.95,6.66,6.66,0,0,0,2.32-.4,5.12,5.12,0,0,0,1.84-1.08l1.4,2.34a7.5,7.5,0,0,1-2.69,1.49A10.17,10.17,0,0,1,458.15,33Z"/><path class="cls-2" d="M474.07,33a6.86,6.86,0,0,1-3.2-.75,5.76,5.76,0,0,1-2.29-2.17,6.56,6.56,0,0,1-.84-3.41,9.22,9.22,0,0,1,.6-3.37,8.26,8.26,0,0,1,1.71-2.67,8,8,0,0,1,2.58-1.75,8.25,8.25,0,0,1,3.22-.62,7,7,0,0,1,3.11.65,4.35,4.35,0,0,1,2,2,6.61,6.61,0,0,1,.62,3.25,11.77,11.77,0,0,1-1,4.67A7.36,7.36,0,0,1,478,31.89,7,7,0,0,1,474.07,33Zm.86-2.88a4.74,4.74,0,0,0,2.56-.69,4.94,4.94,0,0,0,1.75-1.9,5.85,5.85,0,0,0,.65-2.8,3.54,3.54,0,0,0-1-2.64,3.85,3.85,0,0,0-2.8-1,4.74,4.74,0,0,0-4.31,2.59,5.85,5.85,0,0,0-.65,2.8,3.5,3.5,0,0,0,1,2.64A3.87,3.87,0,0,0,474.93,30.11Zm3.53,2.69.65-3.28.91-3.83.46-3.85.68-3.42h3.36L481.67,32.8Z"/><path class="cls-2" d="M492.58,33a6.9,6.9,0,0,1-3.21-.75,5.63,5.63,0,0,1-2.29-2.17,6.65,6.65,0,0,1-.83-3.41,9.22,9.22,0,0,1,.6-3.37,8.26,8.26,0,0,1,1.71-2.67,8,8,0,0,1,2.58-1.75,8.14,8.14,0,0,1,3.19-.62,7.06,7.06,0,0,1,3.07.62,4.56,4.56,0,0,1,2,1.86,6.25,6.25,0,0,1,.7,3.07,12.75,12.75,0,0,1-.51,3.71,8.89,8.89,0,0,1-1.49,2.91,6.6,6.6,0,0,1-2.36,1.9A7.12,7.12,0,0,1,492.58,33Zm.86-2.88a4.71,4.71,0,0,0,4.3-2.59,6,6,0,0,0,.63-2.8,3.57,3.57,0,0,0-1-2.64,3.85,3.85,0,0,0-2.82-1,4.76,4.76,0,0,0-2.53.69,4.68,4.68,0,0,0-1.76,1.9,5.84,5.84,0,0,0-.64,2.8,3.57,3.57,0,0,0,1,2.64A3.89,3.89,0,0,0,493.44,30.11Zm3.5,2.69.68-3.28.89-3.83.46-3.85,1.8-9h3.37l-4,20Z"/><path class="cls-2" d="M505,38.22a6.67,6.67,0,0,1-2.11-.35A4.53,4.53,0,0,1,501.2,37l1.67-2.45a4,4,0,0,0,1,.66,3.29,3.29,0,0,0,1.33.26,2.6,2.6,0,0,0,1.5-.45,4.91,4.91,0,0,0,1.33-1.52l1.27-2,.32-.35,7.93-12.71H521L511,34.07a15.11,15.11,0,0,1-1.92,2.48,5.44,5.44,0,0,1-1.9,1.29A6.24,6.24,0,0,1,505,38.22Zm3.7-4.9-3.53-14.9h3.37l2.82,12.42Z"/><path class="cls-2" d="M528,21.22l.54-2.7h9.56l-.53,2.7ZM533,33a4.61,4.61,0,0,1-2.41-.6,3.4,3.4,0,0,1-1.46-1.73A4.63,4.63,0,0,1,529,28l2.56-12.77h3.37L532.35,28a2.28,2.28,0,0,0,.22,1.62,1.53,1.53,0,0,0,1.42.62,3.5,3.5,0,0,0,1-.15,3.38,3.38,0,0,0,.9-.42l.59,2.48a4.81,4.81,0,0,1-1.67.67A8.61,8.61,0,0,1,533,33Z"/><path class="cls-2" d="M545.66,33A8.08,8.08,0,0,1,542,32.2,6,6,0,0,1,539.54,30a6.33,6.33,0,0,1-.86-3.33,8.43,8.43,0,0,1,1.11-4.33,7.89,7.89,0,0,1,3-3,8.74,8.74,0,0,1,4.4-1.1,8.42,8.42,0,0,1,3.71.77,5.75,5.75,0,0,1,2.44,2.18,6.38,6.38,0,0,1,.86,3.36,8.44,8.44,0,0,1-1.11,4.31,8,8,0,0,1-3,3A8.8,8.8,0,0,1,545.66,33Zm.21-2.88a4.72,4.72,0,0,0,2.56-.69,4.8,4.8,0,0,0,1.75-1.9,5.73,5.73,0,0,0,.65-2.8,3.54,3.54,0,0,0-1-2.64,3.87,3.87,0,0,0-2.81-1,4.72,4.72,0,0,0-2.54.69,4.78,4.78,0,0,0-1.77,1.9,5.84,5.84,0,0,0-.64,2.8,3.5,3.5,0,0,0,1,2.65A3.88,3.88,0,0,0,545.87,30.11Z"/><path class="cls-2" d="M584,18.25a6,6,0,0,1,3.16.76,4,4,0,0,1,1.77,2.22,6.83,6.83,0,0,1,.08,3.6l-1.59,8h-3.36l1.58-7.89a3.61,3.61,0,0,0-.29-2.75,2.6,2.6,0,0,0-2.35-1,4.14,4.14,0,0,0-2.87,1,5.58,5.58,0,0,0-1.54,3.11l-1.52,7.49h-3.36l1.59-7.89a3.65,3.65,0,0,0-.3-2.75,2.6,2.6,0,0,0-2.34-1,4.12,4.12,0,0,0-2.87,1,5.61,5.61,0,0,0-1.55,3.14l-1.51,7.46h-3.37l2.86-14.38h3.21l-.79,4-.56-1.16A6,6,0,0,1,570.57,19a7.46,7.46,0,0,1,3.27-.72,6.2,6.2,0,0,1,2.48.47,4.13,4.13,0,0,1,1.74,1.43,4.72,4.72,0,0,1,.77,2.36l-1.62-.35a7.53,7.53,0,0,1,2.84-2.92A7.85,7.85,0,0,1,584,18.25Z"/><path class="cls-2" d="M599,33a8.25,8.25,0,0,1-3.74-.79A6,6,0,0,1,592.77,30a6.24,6.24,0,0,1-.88-3.33A8.61,8.61,0,0,1,593,22.32a7.84,7.84,0,0,1,2.94-3,8.31,8.31,0,0,1,4.28-1.1,7.56,7.56,0,0,1,3.5.76,5.48,5.48,0,0,1,2.3,2.17,6.59,6.59,0,0,1,.82,3.38c0,.34,0,.69-.05,1.05a9.11,9.11,0,0,1-.16,1H594.4l.38-2.24H605l-1.38.75a4,4,0,0,0-.19-2.29,2.83,2.83,0,0,0-1.29-1.4A4.41,4.41,0,0,0,600,21a4.78,4.78,0,0,0-2.57.68,4.55,4.55,0,0,0-1.69,1.95,6.79,6.79,0,0,0-.59,2.92,3.51,3.51,0,0,0,1,2.69,4.48,4.48,0,0,0,3.14.95,6.7,6.7,0,0,0,2.32-.4,5,5,0,0,0,1.83-1.08l1.4,2.34a7.38,7.38,0,0,1-2.68,1.49A10.23,10.23,0,0,1,599,33Z"/><path class="cls-2" d="M615.66,33a8.29,8.29,0,0,1-3.75-.79A5.94,5.94,0,0,1,609.45,30a6.24,6.24,0,0,1-.88-3.33,8.6,8.6,0,0,1,1.08-4.34,7.86,7.86,0,0,1,3-3,8.3,8.3,0,0,1,4.27-1.1,7.57,7.57,0,0,1,3.51.76,5.53,5.53,0,0,1,2.3,2.17,6.59,6.59,0,0,1,.82,3.38c0,.34,0,.69,0,1.05a9.11,9.11,0,0,1-.16,1H611.08l.38-2.24h10.23l-1.37.75a4.12,4.12,0,0,0-.19-2.29,2.92,2.92,0,0,0-1.29-1.4,4.41,4.41,0,0,0-2.13-.48,4.76,4.76,0,0,0-2.57.68,4.55,4.55,0,0,0-1.69,1.95,6.79,6.79,0,0,0-.59,2.92,3.51,3.51,0,0,0,1,2.69,4.48,4.48,0,0,0,3.14.95,6.7,6.7,0,0,0,2.32-.4,5.16,5.16,0,0,0,1.83-1.08l1.4,2.34a7.46,7.46,0,0,1-2.68,1.49A10.23,10.23,0,0,1,615.66,33Z"/><path class="cls-2" d="M625.52,21.22l.54-2.7h9.57l-.54,2.7Zm5,11.77a4.61,4.61,0,0,1-2.41-.6,3.4,3.4,0,0,1-1.46-1.73,4.63,4.63,0,0,1-.15-2.65l2.56-12.77h3.37L629.86,28a2.28,2.28,0,0,0,.22,1.62,1.53,1.53,0,0,0,1.42.62,3.45,3.45,0,0,0,1-.15,3.38,3.38,0,0,0,.9-.42l.59,2.48a4.81,4.81,0,0,1-1.67.67A8.61,8.61,0,0,1,630.51,33Z"/><path class="cls-2" d="M644.38,21.22l.54-2.7h9.57l-.54,2.7Zm5,11.77a4.61,4.61,0,0,1-2.41-.6,3.45,3.45,0,0,1-1.46-1.73,4.63,4.63,0,0,1-.15-2.65l2.56-12.77h3.37L648.72,28a2.28,2.28,0,0,0,.22,1.62,1.53,1.53,0,0,0,1.42.62,3.5,3.5,0,0,0,1.89-.57l.59,2.48a4.81,4.81,0,0,1-1.67.67A8.61,8.61,0,0,1,649.37,33Z"/><path class="cls-2" d="M666.1,18.25a6,6,0,0,1,3.14.76,4.15,4.15,0,0,1,1.82,2.22,6.69,6.69,0,0,1,.11,3.6l-1.59,8h-3.37l1.56-7.89a3.55,3.55,0,0,0-.32-2.74,2.78,2.78,0,0,0-2.45-1,4.63,4.63,0,0,0-3.08,1,5.44,5.44,0,0,0-1.64,3.13l-1.51,7.46H655.4l4-20h3.37l-1.94,9.7-.7-1.29A6.09,6.09,0,0,1,662.69,19,8,8,0,0,1,666.1,18.25Z"/><path class="cls-2" d="M681.11,33a8.29,8.29,0,0,1-3.75-.79A5.94,5.94,0,0,1,674.9,30a6.15,6.15,0,0,1-.88-3.33,8.6,8.6,0,0,1,1.08-4.34,7.86,7.86,0,0,1,2.95-3,8.3,8.3,0,0,1,4.27-1.1,7.5,7.5,0,0,1,3.5.76,5.5,5.5,0,0,1,2.31,2.17,6.59,6.59,0,0,1,.82,3.38c0,.34,0,.69-.05,1.05a9,9,0,0,1-.17,1h-12.2l.38-2.24h10.23l-1.37.75a4.12,4.12,0,0,0-.19-2.29,2.92,2.92,0,0,0-1.29-1.4,4.44,4.44,0,0,0-2.13-.48,4.76,4.76,0,0,0-2.57.68,4.55,4.55,0,0,0-1.69,1.95,6.79,6.79,0,0,0-.59,2.92,3.51,3.51,0,0,0,1,2.69,4.47,4.47,0,0,0,3.14.95,6.7,6.7,0,0,0,2.32-.4,5.16,5.16,0,0,0,1.83-1.08L687,31a7.46,7.46,0,0,1-2.68,1.49A10.23,10.23,0,0,1,681.11,33Z"/><path class="cls-2" d="M705.2,33a8.26,8.26,0,0,1-3.73-.79A5.85,5.85,0,0,1,699,30a6.23,6.23,0,0,1-.86-3.33,8.53,8.53,0,0,1,1.1-4.33,8,8,0,0,1,3-3,9,9,0,0,1,4.48-1.1,7.91,7.91,0,0,1,3.76.85A5.88,5.88,0,0,1,713,21.62l-2.89,1.48a3.23,3.23,0,0,0-1.38-1.51,4.64,4.64,0,0,0-2.2-.48,4.8,4.8,0,0,0-4.31,2.59,5.85,5.85,0,0,0-.65,2.8,3.54,3.54,0,0,0,1,2.64,3.92,3.92,0,0,0,2.83,1,5,5,0,0,0,2.21-.49,4.27,4.27,0,0,0,1.72-1.51l2.48,1.67A6.62,6.62,0,0,1,709,32.14,8.59,8.59,0,0,1,705.2,33Z"/><path class="cls-2" d="M719.83,33a5.9,5.9,0,0,1-3.09-.76A4.27,4.27,0,0,1,714.92,30a6.61,6.61,0,0,1-.1-3.6l1.58-8h3.37l-1.59,7.89a3.64,3.64,0,0,0,.34,2.73,2.68,2.68,0,0,0,2.41,1,4.51,4.51,0,0,0,3-1,5.15,5.15,0,0,0,1.63-3.12l1.51-7.46h3.34L727.59,32.8h-3.21l.81-4.09.54,1.29a6.3,6.3,0,0,1-2.58,2.27A7.77,7.77,0,0,1,719.83,33Z"/><path class="cls-2" d="M732.41,21.22l.54-2.7h9.56l-.54,2.7Zm5,11.77a4.67,4.67,0,0,1-2.42-.6,3.43,3.43,0,0,1-1.45-1.73,4.63,4.63,0,0,1-.15-2.65l2.56-12.77h3.37L736.75,28A2.34,2.34,0,0,0,737,29.6a1.54,1.54,0,0,0,1.43.62,3.5,3.5,0,0,0,1-.15,3.38,3.38,0,0,0,.9-.42l.59,2.48a4.81,4.81,0,0,1-1.67.67A8.61,8.61,0,0,1,737.4,33Z"/><path class="cls-2" d="M750.17,33a8.29,8.29,0,0,1-3.75-.79A5.94,5.94,0,0,1,744,30a6.15,6.15,0,0,1-.88-3.33,8.6,8.6,0,0,1,1.08-4.34,7.86,7.86,0,0,1,3-3,8.3,8.3,0,0,1,4.27-1.1,7.53,7.53,0,0,1,3.5.76,5.5,5.5,0,0,1,2.31,2.17,6.69,6.69,0,0,1,.82,3.38,9.51,9.51,0,0,1-.06,1.05,7.21,7.21,0,0,1-.16,1h-12.2l.37-2.24H756.2l-1.37.75a4.12,4.12,0,0,0-.19-2.29,2.92,2.92,0,0,0-1.29-1.4,4.46,4.46,0,0,0-2.13-.48,4.82,4.82,0,0,0-2.58.68A4.53,4.53,0,0,0,747,23.58a6.79,6.79,0,0,0-.59,2.92,3.47,3.47,0,0,0,1,2.69,4.47,4.47,0,0,0,3.14.95,6.6,6.6,0,0,0,2.31-.4,5.12,5.12,0,0,0,1.84-1.08l1.4,2.34a7.55,7.55,0,0,1-2.68,1.49A10.27,10.27,0,0,1,750.17,33Z"/><path class="cls-2" d="M764.53,33a12.88,12.88,0,0,1-3.53-.46,7.83,7.83,0,0,1-2.53-1.1l1.4-2.59a7.37,7.37,0,0,0,2.22,1,9.9,9.9,0,0,0,2.79.39,5,5,0,0,0,2.46-.46,1.4,1.4,0,0,0,.8-1.26,1,1,0,0,0-.57-.89,5.6,5.6,0,0,0-1.44-.49l-1.88-.4a9.71,9.71,0,0,1-1.89-.59A3.46,3.46,0,0,1,760.92,25a3,3,0,0,1-.57-1.94,4.08,4.08,0,0,1,.86-2.61,5.5,5.5,0,0,1,2.41-1.66,10.38,10.38,0,0,1,3.58-.58,12.34,12.34,0,0,1,2.85.33,7.2,7.2,0,0,1,2.32.91l-1.24,2.59a6.37,6.37,0,0,0-2.09-.86,10.3,10.3,0,0,0-2.17-.24,4.74,4.74,0,0,0-2.44.49,1.46,1.46,0,0,0-.79,1.26,1,1,0,0,0,.56.91,5.44,5.44,0,0,0,1.44.53c.59.13,1.22.27,1.89.4a9.92,9.92,0,0,1,1.89.58,3.73,3.73,0,0,1,1.44,1.09,3,3,0,0,1,.57,1.9,4.16,4.16,0,0,1-.88,2.66,5.41,5.41,0,0,1-2.44,1.64A10.68,10.68,0,0,1,764.53,33Z"/><path class="cls-2" d="M773.91,21.22l.53-2.7H784l-.54,2.7Zm5,11.77a4.61,4.61,0,0,1-2.41-.6A3.45,3.45,0,0,1,775,30.66a4.72,4.72,0,0,1-.15-2.65l2.56-12.77h3.37L778.24,28a2.39,2.39,0,0,0,.22,1.62,1.54,1.54,0,0,0,1.43.62,3.5,3.5,0,0,0,1.88-.57l.59,2.48a4.81,4.81,0,0,1-1.67.67A8.61,8.61,0,0,1,778.89,33Z"/><path class="cls-2" d="M798.85,33a6.89,6.89,0,0,1-3.2-.75,5.57,5.57,0,0,1-2.29-2.17,6.56,6.56,0,0,1-.84-3.41,9,9,0,0,1,.61-3.37,7.84,7.84,0,0,1,4.28-4.42,8.21,8.21,0,0,1,3.19-.62,7.14,7.14,0,0,1,3.08.62,4.53,4.53,0,0,1,2,1.86,6.14,6.14,0,0,1,.7,3.07,12.75,12.75,0,0,1-.51,3.71,8.69,8.69,0,0,1-1.48,2.91,6.77,6.77,0,0,1-2.36,1.9A7.17,7.17,0,0,1,798.85,33Zm.86-2.88a4.71,4.71,0,0,0,4.3-2.59,6,6,0,0,0,.64-2.8,3.54,3.54,0,0,0-1-2.64,3.81,3.81,0,0,0-2.81-1,4.73,4.73,0,0,0-2.53.69,4.64,4.64,0,0,0-1.77,1.9,6,6,0,0,0-.63,2.8,3.53,3.53,0,0,0,1,2.64A3.86,3.86,0,0,0,799.71,30.11Zm3.51,2.69.67-3.28.89-3.83.46-3.85,1.81-9h3.36l-4,20Z"/><path class="cls-2" d="M818,33a8.08,8.08,0,0,1-3.68-.79A5.89,5.89,0,0,1,811.87,30a6.33,6.33,0,0,1-.86-3.33,8.53,8.53,0,0,1,1.1-4.33,8,8,0,0,1,3-3,8.77,8.77,0,0,1,4.41-1.1,8.37,8.37,0,0,1,3.7.77,5.75,5.75,0,0,1,2.44,2.18,6.29,6.29,0,0,1,.86,3.36,8.43,8.43,0,0,1-1.1,4.31,8.13,8.13,0,0,1-3,3A8.82,8.82,0,0,1,818,33Zm.21-2.88a4.74,4.74,0,0,0,2.56-.69,4.87,4.87,0,0,0,1.75-1.9,5.85,5.85,0,0,0,.65-2.8,3.5,3.5,0,0,0-1-2.64,3.83,3.83,0,0,0-2.8-1,4.74,4.74,0,0,0-4.31,2.59,5.85,5.85,0,0,0-.65,2.8,3.47,3.47,0,0,0,1,2.65A3.87,3.87,0,0,0,818.2,30.11Z"/><path class="cls-2" d="M834.07,38.22a13.59,13.59,0,0,1-3.77-.5,8.61,8.61,0,0,1-3-1.47l1.76-2.53a6.18,6.18,0,0,0,2.2,1.17,9.63,9.63,0,0,0,3,.45,5.38,5.38,0,0,0,3.58-1,5.26,5.26,0,0,0,1.62-3.11l.59-3,.89-3,.54-3.26.67-3.5h3.21L843,30.62a9.57,9.57,0,0,1-3,5.81A9.06,9.06,0,0,1,834.07,38.22Zm.84-6.06a7.4,7.4,0,0,1-3.32-.72,5.52,5.52,0,0,1-2.29-2,5.89,5.89,0,0,1-.84-3.2,8.1,8.1,0,0,1,.61-3.14,7.78,7.78,0,0,1,1.7-2.52,8,8,0,0,1,2.59-1.68,8.65,8.65,0,0,1,3.27-.61,7.36,7.36,0,0,1,2.88.56,4.54,4.54,0,0,1,2.11,1.77,5.62,5.62,0,0,1,.72,3.22,10.45,10.45,0,0,1-.94,4.27,7.16,7.16,0,0,1-2.53,3A7.07,7.07,0,0,1,834.91,32.16Zm.75-2.86a5.09,5.09,0,0,0,2.56-.63A4.64,4.64,0,0,0,840,26.92a5.07,5.07,0,0,0,.63-2.52,3,3,0,0,0-1-2.41,4.07,4.07,0,0,0-2.78-.88,5.09,5.09,0,0,0-2.56.63,4.71,4.71,0,0,0-1.75,1.74,4.94,4.94,0,0,0-.65,2.53,3.05,3.05,0,0,0,1,2.42A4.14,4.14,0,0,0,835.66,29.3Z"/><path class="cls-2" d="M851.85,33a13,13,0,0,1-3.53-.46,8,8,0,0,1-2.53-1.1l1.4-2.59a7.55,7.55,0,0,0,2.23,1,9.78,9.78,0,0,0,2.78.39,5.05,5.05,0,0,0,2.47-.46,1.4,1.4,0,0,0,.8-1.26,1,1,0,0,0-.57-.89,5.89,5.89,0,0,0-1.44-.49l-1.89-.4a9.83,9.83,0,0,1-1.88-.59A3.55,3.55,0,0,1,848.24,25a3.11,3.11,0,0,1-.56-1.94,4.08,4.08,0,0,1,.86-2.61A5.45,5.45,0,0,1,851,18.83a10.28,10.28,0,0,1,3.57-.58,12.49,12.49,0,0,1,2.86.33,7.39,7.39,0,0,1,2.32.91l-1.24,2.59a6.46,6.46,0,0,0-2.09-.86A10.37,10.37,0,0,0,854.2,21a4.72,4.72,0,0,0-2.44.49,1.47,1.47,0,0,0-.8,1.26,1,1,0,0,0,.57.91,5.44,5.44,0,0,0,1.44.53c.59.13,1.22.27,1.89.4a9.82,9.82,0,0,1,1.88.58,3.69,3.69,0,0,1,1.45,1.09,3,3,0,0,1,.56,1.9,4.15,4.15,0,0,1-.87,2.66,5.41,5.41,0,0,1-2.44,1.64A10.74,10.74,0,0,1,851.85,33Z"/><path class="cls-2" d="M868.26,32.8l2.86-14.38h3.37L871.63,32.8ZM873.57,16a2,2,0,0,1-1.47-.55,1.84,1.84,0,0,1-.55-1.33,2.09,2.09,0,0,1,.63-1.54,2.29,2.29,0,0,1,1.66-.62,2.08,2.08,0,0,1,1.46.53,1.71,1.71,0,0,1,.56,1.28,2.23,2.23,0,0,1-.62,1.62A2.26,2.26,0,0,1,873.57,16Z"/><path class="cls-2" d="M886.75,18.25a6.1,6.1,0,0,1,3.15.76,4.06,4.06,0,0,1,1.82,2.22,6.71,6.71,0,0,1,.09,3.6l-1.59,8h-3.37l1.57-7.89a3.59,3.59,0,0,0-.32-2.74,2.79,2.79,0,0,0-2.46-1,4.61,4.61,0,0,0-3.07,1,5.33,5.33,0,0,0-1.64,3.13l-1.51,7.46h-3.37l2.86-14.38h3.2l-.8,4.09-.55-1.29A6.17,6.17,0,0,1,883.34,19,8,8,0,0,1,886.75,18.25Z"/><path class="cls-2" d="M911.83,33.07a11,11,0,0,1-4.93-1,7.48,7.48,0,0,1-3.14-2.84A8.08,8.08,0,0,1,902.67,25a12.07,12.07,0,0,1,.82-4.46,10.57,10.57,0,0,1,2.36-3.6,11,11,0,0,1,3.66-2.41,12.32,12.32,0,0,1,4.77-.88,10.66,10.66,0,0,1,4.31.81,6.29,6.29,0,0,1,2.86,2.34L918.92,19a5.2,5.2,0,0,0-2-1.64,6.74,6.74,0,0,0-2.89-.57,8.14,8.14,0,0,0-3.26.63,7.06,7.06,0,0,0-2.48,1.73,7.83,7.83,0,0,0-1.56,2.59,9,9,0,0,0-.54,3.11,5.48,5.48,0,0,0,.67,2.72,4.59,4.59,0,0,0,2,1.84,7.47,7.47,0,0,0,3.23.64,7.93,7.93,0,0,0,2.95-.54,6.63,6.63,0,0,0,2.41-1.64l2,2.21a8.22,8.22,0,0,1-3.35,2.3A12.15,12.15,0,0,1,911.83,33.07Z"/><path class="cls-2" d="M927.46,33a6.79,6.79,0,0,1-3.19-.75A5.69,5.69,0,0,1,922,30.07a6.46,6.46,0,0,1-.85-3.41,9.22,9.22,0,0,1,.6-3.37,8.26,8.26,0,0,1,1.71-2.67A8,8,0,0,1,926,18.87a8.25,8.25,0,0,1,3.22-.62,7,7,0,0,1,3.11.65,4.35,4.35,0,0,1,2,2A6.73,6.73,0,0,1,935,24.1a11.77,11.77,0,0,1-1,4.67,7.29,7.29,0,0,1-2.56,3.12A7,7,0,0,1,927.46,33Zm.86-2.88a4.74,4.74,0,0,0,2.56-.69,5,5,0,0,0,1.76-1.9,6,6,0,0,0,.64-2.8,3.5,3.5,0,0,0-1-2.64,3.83,3.83,0,0,0-2.8-1,4.72,4.72,0,0,0-2.54.69,4.78,4.78,0,0,0-1.77,1.9,5.85,5.85,0,0,0-.65,2.8,3.5,3.5,0,0,0,1,2.64A3.87,3.87,0,0,0,928.32,30.11Zm3.53,2.69.65-3.28.91-3.83.46-3.85.67-3.42h3.38L935.06,32.8Z"/><path class="cls-2" d="M939.48,32.8l2.85-14.38h3.21l-.81,4.09-.29-1.19A5.37,5.37,0,0,1,947,18.91a9.45,9.45,0,0,1,3.74-.66l-.62,3.21a3.38,3.38,0,0,0-.4-.07h-.43a5.05,5.05,0,0,0-3.26,1,5.35,5.35,0,0,0-1.73,3.3l-1.42,7.08Z"/><path class="cls-2" d="M957,33a6.9,6.9,0,0,1-3.21-.75,5.63,5.63,0,0,1-2.29-2.17,6.55,6.55,0,0,1-.83-3.41,9.22,9.22,0,0,1,.6-3.37,7.84,7.84,0,0,1,4.28-4.42,8.22,8.22,0,0,1,3.2-.62,7.09,7.09,0,0,1,3.07.62,4.56,4.56,0,0,1,2,1.86,6.25,6.25,0,0,1,.69,3.07,12.75,12.75,0,0,1-.51,3.71,8.69,8.69,0,0,1-1.48,2.91,6.68,6.68,0,0,1-2.36,1.9A7.12,7.12,0,0,1,957,33Zm.86-2.88a4.72,4.72,0,0,0,2.54-.69,4.82,4.82,0,0,0,1.76-1.9,6,6,0,0,0,.63-2.8,3.57,3.57,0,0,0-1-2.64,3.85,3.85,0,0,0-2.82-1,4.76,4.76,0,0,0-2.53.69,4.62,4.62,0,0,0-1.76,1.9,5.84,5.84,0,0,0-.64,2.8,3.57,3.57,0,0,0,1,2.64A3.89,3.89,0,0,0,957.88,30.11Zm3.5,2.69.68-3.28.89-3.83.45-3.85,1.81-9h3.36l-4,20Z"/><path class="cls-2" d="M975.5,33a6.79,6.79,0,0,1-3.19-.75A5.76,5.76,0,0,1,970,30.07a6.46,6.46,0,0,1-.85-3.41,9,9,0,0,1,.61-3.37,7.84,7.84,0,0,1,4.28-4.42,8.25,8.25,0,0,1,3.22-.62,7,7,0,0,1,3.11.65,4.35,4.35,0,0,1,2,2A6.61,6.61,0,0,1,983,24.1a11.77,11.77,0,0,1-1,4.67,7.29,7.29,0,0,1-2.56,3.12A7,7,0,0,1,975.5,33Zm.87-2.88a4.68,4.68,0,0,0,2.55-.69,5,5,0,0,0,1.76-1.9,5.84,5.84,0,0,0,.64-2.8,3.5,3.5,0,0,0-1-2.64,3.81,3.81,0,0,0-2.8-1,4.72,4.72,0,0,0-2.54.69,4.78,4.78,0,0,0-1.77,1.9,5.84,5.84,0,0,0-.64,2.8,3.54,3.54,0,0,0,1,2.64A3.9,3.9,0,0,0,976.37,30.11Zm3.52,2.69.65-3.28.92-3.83.45-3.85.68-3.42H986L983.1,32.8Z"/><path class="cls-2" d="M998.22,18.25a6.07,6.07,0,0,1,3.15.76,4.06,4.06,0,0,1,1.82,2.22,6.71,6.71,0,0,1,.09,3.6l-1.59,8h-3.37l1.57-7.89a3.54,3.54,0,0,0-.33-2.74,2.77,2.77,0,0,0-2.45-1,4.61,4.61,0,0,0-3.07,1,5.33,5.33,0,0,0-1.64,3.13l-1.51,7.46h-3.37l2.86-14.38h3.2l-.81,4.09-.53-1.29A6,6,0,0,1,994.81,19,8,8,0,0,1,998.22,18.25Z"/><path class="cls-2" d="M1013.12,33a8,8,0,0,1-3.68-.79A6,6,0,0,1,1007,30a6.23,6.23,0,0,1-.86-3.33,8.43,8.43,0,0,1,1.1-4.33,8,8,0,0,1,3-3,8.8,8.8,0,0,1,4.41-1.1,8.37,8.37,0,0,1,3.7.77,5.69,5.69,0,0,1,2.44,2.18,6.29,6.29,0,0,1,.86,3.36,8.43,8.43,0,0,1-1.1,4.31,8.13,8.13,0,0,1-3,3A8.82,8.82,0,0,1,1013.12,33Zm.21-2.88a4.74,4.74,0,0,0,2.56-.69,4.87,4.87,0,0,0,1.75-1.9,5.73,5.73,0,0,0,.65-2.8,3.5,3.5,0,0,0-1-2.64,3.83,3.83,0,0,0-2.8-1,4.74,4.74,0,0,0-4.31,2.59,5.85,5.85,0,0,0-.65,2.8,3.47,3.47,0,0,0,1,2.65A3.87,3.87,0,0,0,1013.33,30.11Z"/><path class="cls-2" d="M1027.18,26.55a5,5,0,0,1,.7-1.86,6.32,6.32,0,0,1,1.2-1.37c.46-.4.93-.76,1.41-1.11s.94-.67,1.35-1a4.4,4.4,0,0,0,1-1.08,2.55,2.55,0,0,0,.38-1.4,1.87,1.87,0,0,0-.8-1.58,3.86,3.86,0,0,0-2.27-.58,6.15,6.15,0,0,0-2.66.56,6,6,0,0,0-2,1.54l-2.24-1.86a8.06,8.06,0,0,1,3.11-2.31,11,11,0,0,1,4.43-.84,8.46,8.46,0,0,1,3.18.54,4.64,4.64,0,0,1,2.09,1.54,3.8,3.8,0,0,1,.74,2.37,4.8,4.8,0,0,1-1.41,3.56,12.52,12.52,0,0,1-1.36,1.15l-1.43,1.07a7.49,7.49,0,0,0-1.23,1.14,4.06,4.06,0,0,0-.76,1.51Zm.73,6.44a2,2,0,0,1-1.47-.58,1.84,1.84,0,0,1-.58-1.36,2.13,2.13,0,0,1,.66-1.6,2.22,2.22,0,0,1,1.57-.64,2,2,0,0,1,1.49.56,1.89,1.89,0,0,1,.57,1.38,2.21,2.21,0,0,1-.3,1.12,2.13,2.13,0,0,1-.8.83A2.25,2.25,0,0,1,1027.91,33Z"/></g></g></svg>