<svg xmlns="http://www.w3.org/2000/svg" viewBox="0 0 431.42 115.41"><defs><style>.cls-1{fill:#2194ed;}.cls-2{fill:#2d2d2d;}.cls-3{fill:#efefef;}</style></defs><g id="Layer_2" data-name="Layer 2"><g id="Layer_1-2" data-name="Layer 1"><path class="cls-1" d="M62.48,22.7H395.24a35.18,35.18,0,0,1,35.18,35.18v0a35.18,35.18,0,0,1-35.18,35.18H62.48a0,0,0,0,1,0,0V22.7A0,0,0,0,1,62.48,22.7Z"/><path class="cls-2" d="M395.41,93.71H56.47v-72H395.41a36,36,0,1,1,0,72ZM59.94,90.24H395.41a32.54,32.54,0,0,0,0-65.07H59.94Z"/><rect class="cls-1" x="1.94" y="1.94" width="111.53" height="111.53" rx="55.76"/><path class="cls-2" d="M57.7,115.41A57.71,57.71,0,1,1,115.41,57.7,57.77,57.77,0,0,1,57.7,115.41Zm0-111.53A53.82,53.82,0,1,0,111.53,57.7,53.88,53.88,0,0,0,57.7,3.88Z"/><path class="cls-3" d="M45.21,75.26a14.18,14.18,0,0,1-3.14-.9,13.9,13.9,0,0,1-8-8.53c-.24-.69.18-1.15.91-1A12.17,12.17,0,0,0,37.5,65l-.45-.24a13.92,13.92,0,0,1-7.57-10.58,11.14,11.14,0,0,1-.12-2,.73.73,0,0,1,1.12-.69,14.83,14.83,0,0,0,2.78,1.12l.31,0-.75-.85A13.78,13.78,0,0,1,29.48,42a13.43,13.43,0,0,1,1.77-6.15c.42-.73.94-.77,1.48-.13A36.88,36.88,0,0,0,50.11,47.45,35.91,35.91,0,0,0,57.78,49c.65,0,.82-.15.76-.81A13.69,13.69,0,0,1,69,33.31a14,14,0,0,1,12.86,3,1.94,1.94,0,0,0,1.83.43,26,26,0,0,0,6.55-2.68c.36-.2.7-.35,1.07,0s.28.68.14,1.07a13.89,13.89,0,0,1-3.1,5.05l-.28.3s0,0-.05.11a.52.52,0,0,0,.35,0A26.44,26.44,0,0,0,92,39.27l.31-.13a.74.74,0,0,1,.88,1.11A26.27,26.27,0,0,1,91,43.16a26.78,26.78,0,0,1-3.22,3.08,2.59,2.59,0,0,0-1,2.1A39.24,39.24,0,0,1,76.5,74.59,36.18,36.18,0,0,1,55.94,86.15a40.32,40.32,0,0,1-9.68.71,38.72,38.72,0,0,1-17.49-5,1.79,1.79,0,0,1-.57-.42,1.07,1.07,0,0,1,.59-1.74,4.89,4.89,0,0,1,1.21,0,26.24,26.24,0,0,0,14.85-4.13Z"/><path class="cls-3" d="M133.09,66.33,137,46.73h5.55l-3,15.21h9.35L148,66.33Z"/><path class="cls-3" d="M156.78,66.58a6.42,6.42,0,0,1-3.11-.81,6.13,6.13,0,0,1-2.39-2.35,7.24,7.24,0,0,1-.91-3.75,9.24,9.24,0,0,1,.64-3.5,8.4,8.4,0,0,1,1.78-2.77,8.07,8.07,0,0,1,2.63-1.84,8,8,0,0,1,3.18-.65,6.61,6.61,0,0,1,3.18.71,4.26,4.26,0,0,1,1.94,2.29,9,9,0,0,1,.28,4.27,12.87,12.87,0,0,1-1.2,4.46,7.46,7.46,0,0,1-2.47,2.92A6.17,6.17,0,0,1,156.78,66.58Zm1.85-4.28a3.38,3.38,0,0,0,1.87-.53,3.67,3.67,0,0,0,1.28-1.49,5.1,5.1,0,0,0,.46-2.21,2.92,2.92,0,0,0-.76-2.11,2.79,2.79,0,0,0-2.13-.8,3.25,3.25,0,0,0-1.86.55,3.68,3.68,0,0,0-1.29,1.49,5.18,5.18,0,0,0-.46,2.22,2.9,2.9,0,0,0,.76,2.1A2.82,2.82,0,0,0,158.63,62.3Zm2.24,4,.53-2.55,1-5,.67-5,.53-2.6h5.32l-3,15.17Z"/><path class="cls-3" d="M168.51,66.33l.61-3.13,10.25-9.8.81,1.7H171l.79-3.94h13.52l-.65,3.1-10.19,9.83-.86-1.73h9.74l-.81,4Z"/><path class="cls-3" d="M186.37,72a8.2,8.2,0,0,1-2.39-.36,5.22,5.22,0,0,1-1.89-1L184.47,67a4,4,0,0,0,1.06.63,3.37,3.37,0,0,0,1.29.23,2.28,2.28,0,0,0,1.34-.39,4,4,0,0,0,1.07-1.23l1.09-1.76.45-.53,7.64-12.74h5.21L193.9,67a15.65,15.65,0,0,1-2.29,3,6.74,6.74,0,0,1-2.38,1.54A8.5,8.5,0,0,1,186.37,72Zm2.8-5-3.56-15.82h5.3l2.52,12.26Z"/><path class="cls-3" d="M202.22,66.33l3.92-19.6h8.51a12.57,12.57,0,0,1,5.27,1,7.72,7.72,0,0,1,3.38,2.84A8,8,0,0,1,224.47,55a11.88,11.88,0,0,1-.89,4.69,10.51,10.51,0,0,1-2.52,3.59,11.1,11.1,0,0,1-3.87,2.29,14.44,14.44,0,0,1-4.95.8Zm6.43-4.42h3.76a6.63,6.63,0,0,0,3.52-.87,5.75,5.75,0,0,0,2.19-2.37,7.39,7.39,0,0,0,.75-3.37,4.37,4.37,0,0,0-.54-2.24,3.54,3.54,0,0,0-1.63-1.41,6.37,6.37,0,0,0-2.67-.49h-3.25Z"/><path class="cls-3" d="M233.52,66.58a9.63,9.63,0,0,1-4.2-.86,6.42,6.42,0,0,1-3.76-6,8.52,8.52,0,0,1,1.21-4.5,8.69,8.69,0,0,1,3.3-3.12,10,10,0,0,1,4.82-1.14,9.61,9.61,0,0,1,4.21.85,6.59,6.59,0,0,1,2.76,2.39,6.67,6.67,0,0,1,1,3.64,8.49,8.49,0,0,1-1.21,4.51,8.6,8.6,0,0,1-3.3,3.14A9.91,9.91,0,0,1,233.52,66.58Zm.3-4.22a3.32,3.32,0,0,0,1.88-.55,3.68,3.68,0,0,0,1.27-1.5,5,5,0,0,0,.46-2.24,3,3,0,0,0-.74-2.1,2.66,2.66,0,0,0-2.11-.84,3.39,3.39,0,0,0-1.88.53,3.68,3.68,0,0,0-1.27,1.5,5.18,5.18,0,0,0-.46,2.26,3,3,0,0,0,.75,2.14A2.78,2.78,0,0,0,233.82,62.36Z"/><path class="cls-3" d="M250.56,72a16.21,16.21,0,0,1-4.14-.49,9.59,9.59,0,0,1-3.25-1.47l2.38-3.69a7.1,7.1,0,0,0,2.29,1.13,9.49,9.49,0,0,0,2.86.44,3.81,3.81,0,0,0,4.37-3.42l.48-2.35,1.06-3.95.84-4.28.53-2.77h5.07l-2.46,12.37c-.6,3-1.75,5.17-3.46,6.5A10.44,10.44,0,0,1,250.56,72Zm.4-6.46a7.23,7.23,0,0,1-3.31-.77,6.2,6.2,0,0,1-2.42-2.21,6.41,6.41,0,0,1-.91-3.49,8,8,0,0,1,2.4-5.8,8.2,8.2,0,0,1,2.64-1.74,8.45,8.45,0,0,1,3.28-.63,6.63,6.63,0,0,1,3,.64,4.14,4.14,0,0,1,2,2.13,7.65,7.65,0,0,1,.32,4A12.1,12.1,0,0,1,256.71,62a6.74,6.74,0,0,1-2.37,2.67A6.15,6.15,0,0,1,251,65.55Zm1.56-4.26a3.78,3.78,0,0,0,1.87-.45,3.21,3.21,0,0,0,1.26-1.27,4,4,0,0,0,.46-1.92,2.34,2.34,0,0,0-.74-1.8,3,3,0,0,0-2.09-.69,3.74,3.74,0,0,0-1.88.46,3.35,3.35,0,0,0-1.27,1.29,3.84,3.84,0,0,0-.46,1.92,2.28,2.28,0,0,0,.77,1.79A3,3,0,0,0,252.52,61.29Z"/><path class="cls-3" d="M263.44,66.33l4.15-20.77h5.32l-1.63,8.17-1.29,5-.81,4.23-.67,3.41Zm10.33.25a6.92,6.92,0,0,1-2.88-.57,4.21,4.21,0,0,1-2-1.82,6.52,6.52,0,0,1-.7-3.23,14.89,14.89,0,0,1,.48-3.83,10.22,10.22,0,0,1,1.41-3.2,7.15,7.15,0,0,1,2.31-2.21,6.09,6.09,0,0,1,3.16-.81,6.37,6.37,0,0,1,3.12.81,6.26,6.26,0,0,1,2.38,2.33,7.17,7.17,0,0,1,.91,3.74,9.24,9.24,0,0,1-.64,3.5,8.7,8.7,0,0,1-1.78,2.79A8.16,8.16,0,0,1,277,65.93,7.88,7.88,0,0,1,273.77,66.58ZM273,62.3a3.36,3.36,0,0,0,1.87-.53,3.67,3.67,0,0,0,1.28-1.49,5,5,0,0,0,.46-2.21,2.92,2.92,0,0,0-.76-2.11,2.78,2.78,0,0,0-2.12-.8,3.26,3.26,0,0,0-1.87.55,3.59,3.59,0,0,0-1.28,1.49,5,5,0,0,0-.47,2.22,2.94,2.94,0,0,0,.76,2.1A2.82,2.82,0,0,0,273,62.3Z"/><path class="cls-3" d="M289.42,66.58a6.2,6.2,0,0,1-3.2-.79,4.33,4.33,0,0,1-1.92-2.37,7.45,7.45,0,0,1-.11-3.89l1.68-8.37h5.32L289.62,59a3,3,0,0,0,.18,2.24,1.89,1.89,0,0,0,1.75.79,3.21,3.21,0,0,0,2.25-.83,4.45,4.45,0,0,0,1.25-2.56l1.51-7.5h5.32l-3,15.17h-5l.87-4.28.67,1.23a6.89,6.89,0,0,1-2.68,2.51A7.15,7.15,0,0,1,289.42,66.58Z"/><path class="cls-3" d="M309.27,66.58a6.39,6.39,0,0,1-5.49-3.16,7.24,7.24,0,0,1-.92-3.75,9.44,9.44,0,0,1,.64-3.5,8.56,8.56,0,0,1,1.78-2.77,8.28,8.28,0,0,1,2.63-1.84,8,8,0,0,1,3.21-.65,6.92,6.92,0,0,1,2.9.56,4.07,4.07,0,0,1,1.94,1.8,6.6,6.6,0,0,1,.7,3.26,15.2,15.2,0,0,1-.47,3.82,10.42,10.42,0,0,1-1.42,3.21,7.08,7.08,0,0,1-2.32,2.21A6.16,6.16,0,0,1,309.27,66.58Zm1.85-4.28a3.35,3.35,0,0,0,1.89-.53,3.7,3.7,0,0,0,1.26-1.49,5,5,0,0,0,.46-2.21A3,3,0,0,0,314,56a2.78,2.78,0,0,0-2.1-.8,3.26,3.26,0,0,0-1.87.55,3.59,3.59,0,0,0-1.28,1.49,5,5,0,0,0-.47,2.22,2.94,2.94,0,0,0,.76,2.1A2.78,2.78,0,0,0,311.12,62.3Zm2.24,4,.53-2.55,1-5,.7-5,1.65-8.2h5.32L318.4,66.33Z"/><path class="cls-3" d="M327.75,66.58a16.18,16.18,0,0,1-3.81-.43,9.56,9.56,0,0,1-2.77-1.05l1.93-3.72a8.79,8.79,0,0,0,2.49,1,11.44,11.44,0,0,0,2.78.37,4.23,4.23,0,0,0,1.87-.3.89.89,0,0,0,.56-.8c0-.29-.19-.51-.57-.65a8,8,0,0,0-1.47-.35c-.6-.1-1.23-.22-1.89-.37a9.14,9.14,0,0,1-1.89-.64,3.82,3.82,0,0,1-1.47-1.19,3.38,3.38,0,0,1-.58-2.06A4.5,4.5,0,0,1,324,53.37a6.41,6.41,0,0,1,2.9-1.85,12.9,12.9,0,0,1,4.13-.61,16.05,16.05,0,0,1,3.13.3,10,10,0,0,1,2.63.9l-1.87,3.72a7.31,7.31,0,0,0-2.3-.91,11,11,0,0,0-2.21-.24,3.92,3.92,0,0,0-1.88.34,1,1,0,0,0-.56.81c0,.28.19.5.58.66a6.81,6.81,0,0,0,1.45.39l1.89.37a8.4,8.4,0,0,1,1.89.63,3.91,3.91,0,0,1,1.46,1.17,3.35,3.35,0,0,1,.57,2.05,4.42,4.42,0,0,1-1.08,3A6.49,6.49,0,0,1,331.84,66,12.78,12.78,0,0,1,327.75,66.58Z"/><path class="cls-3" d="M337.38,66.33l3.92-19.6h4.56l7.93,13.11-1.91-.06,2.61-13.05h5.43L356,66.33h-4.57l-7.89-13.1,1.88.05-2.61,13Z"/><path class="cls-3" d="M365.49,66.33H360l3.91-19.6h15.35L378.34,51h-9.8Zm1.79-11h9l-.86,4.28h-9Z"/><path class="cls-3" d="M382.2,66.33l3.05-15.2h-6l.9-4.4h17.55l-.89,4.4h-6l-3.05,15.2Z"/></g></g></svg>