<svg xmlns="http://www.w3.org/2000/svg" viewBox="0 0 647.61 180.19"><defs><style>.cls-1{fill:#ffcb3d;}.cls-2{fill:#2d2d2d;}</style></defs><g id="Layer_2" data-name="Layer 2"><g id="Layer_1-2" data-name="Layer 1"><path class="cls-1" d="M106.26,161.15V134.47L2.59,95.55l103.67,1.27V19c0-9.09,10-16.45,22.27-16.45H622.76C635.06,2.59,645,10,645,19V161.15c0,9.08-10,16.45-22.27,16.45H128.53C116.23,177.6,106.26,170.23,106.26,161.15Z"/><path class="cls-2" d="M622.76,180.19H128.53c-13.71,0-24.86-8.55-24.86-19.05V136.26L1.68,98a2.59,2.59,0,0,1,.91-5h0L103.67,94.2V19c0-10.5,11.15-19,24.86-19H622.76c13.7,0,24.85,8.54,24.85,19v142.1C647.61,171.64,636.46,180.19,622.76,180.19ZM17.32,98.32l89.85,33.73a2.58,2.58,0,0,1,1.67,2.42v26.67c0,7.65,8.83,13.87,19.69,13.87H622.76c10.85,0,19.68-6.22,19.68-13.87V19c0-7.65-8.83-13.87-19.68-13.87H128.53c-10.86,0-19.69,6.22-19.69,13.87V96.82a2.6,2.6,0,0,1-.76,1.85,2.63,2.63,0,0,1-1.82.74h0Z"/></g></g></svg>