<svg xmlns="http://www.w3.org/2000/svg" viewBox="0 0 1058.46 63.28"><defs><style>.cls-1{fill:#2d2d2d;}.cls-2{fill:#ffcb3d;}</style></defs><g id="Layer_2" data-name="Layer 2"><g id="Layer_1-2" data-name="Layer 1"><path class="cls-1" d="M25.86,59.4q-12.21,0-19-6.6T0,34.29V5.09H17.9V33.76q0,6.08,2.2,8.61A7.43,7.43,0,0,0,26,44.91a7.42,7.42,0,0,0,6-2.54q2.16-2.53,2.16-8.61V5.09H51.72v29.2q0,11.91-6.82,18.51T25.86,59.4Z"/><path class="cls-1" d="M65.6,58.18V5.09H80.32l27,32.31h-6.83V5.09h17.44V58.18H103.22l-27-32.31h6.83V58.18Z"/><path class="cls-1" d="M132.27,58.18V5.09h26.17a35.85,35.85,0,0,1,15.62,3.23,25,25,0,0,1,10.54,9.14,25.53,25.53,0,0,1,3.79,14.1,25.87,25.87,0,0,1-3.79,14.22A24.92,24.92,0,0,1,174.06,55a35.85,35.85,0,0,1-15.62,3.22Zm17.9-14h7.51a14.49,14.49,0,0,0,6.63-1.44,10.32,10.32,0,0,0,4.44-4.29,14,14,0,0,0,1.59-6.94,13.62,13.62,0,0,0-1.59-6.82,10.4,10.4,0,0,0-4.44-4.25,14.49,14.49,0,0,0-6.63-1.44h-7.51Z"/><path class="cls-1" d="M218.2,44.68h26.54v13.5H200.6V5.09h43.16v13.5H218.2ZM217,24.81h23.67v12.9H217Z"/><path class="cls-1" d="M257.33,58.18V5.09h25.56a31.29,31.29,0,0,1,12.86,2.43,19,19,0,0,1,8.37,6.94,18.94,18.94,0,0,1,3,10.66,18.58,18.58,0,0,1-3,10.58,18.71,18.71,0,0,1-8.37,6.79,32.35,32.35,0,0,1-12.86,2.34H267.27l8-7.35v20.7Zm17.9-18.73-8-8.11h14.48q3.72,0,5.5-1.67A5.92,5.92,0,0,0,289,25.12a5.91,5.91,0,0,0-1.78-4.55q-1.78-1.66-5.5-1.67H267.27l8-8.12Zm13.88,18.73L276.06,38.84h19l13.2,19.34Z"/><path class="cls-2" d="M375.42,59.4a33.72,33.72,0,0,1-11.8-2,27.69,27.69,0,0,1-9.4-5.73,25.8,25.8,0,0,1-6.18-8.8,27.87,27.87,0,0,1-2.2-11.22A27.84,27.84,0,0,1,348,20.42a25.8,25.8,0,0,1,6.18-8.8,27.69,27.69,0,0,1,9.4-5.73,33.72,33.72,0,0,1,11.8-2,33.26,33.26,0,0,1,13.84,2.73,25.66,25.66,0,0,1,10,7.89l-11.3,10.09A18.2,18.2,0,0,0,382.74,20a12.65,12.65,0,0,0-6.41-1.63,13.57,13.57,0,0,0-5.09.91,10.65,10.65,0,0,0-3.9,2.65,12.44,12.44,0,0,0-2.54,4.21,15.71,15.71,0,0,0-.91,5.5,15.75,15.75,0,0,0,.91,5.5,12.44,12.44,0,0,0,2.54,4.21,10.77,10.77,0,0,0,3.9,2.65,13.57,13.57,0,0,0,5.09.91,12.65,12.65,0,0,0,6.41-1.63,18.51,18.51,0,0,0,5.19-4.59l11.3,10.09a26.32,26.32,0,0,1-10,7.85A32.94,32.94,0,0,1,375.42,59.4Z"/><path class="cls-1" d="M375.42,63.28A37.73,37.73,0,0,1,362.28,61a31.81,31.81,0,0,1-10.71-6.53,30.08,30.08,0,0,1-7.1-10.09A32,32,0,0,1,342,31.64a32,32,0,0,1,2.51-12.77,30.08,30.08,0,0,1,7.1-10.09,31.81,31.81,0,0,1,10.71-6.53A37.77,37.77,0,0,1,375.42,0a37.2,37.2,0,0,1,15.44,3.08,29.5,29.5,0,0,1,11.45,9.06,3.86,3.86,0,0,1-.5,5.25l-11.3,10.09a3.83,3.83,0,0,1-2.91,1A3.88,3.88,0,0,1,384.89,27a14.53,14.53,0,0,0-4.09-3.64,8.75,8.75,0,0,0-4.47-1.11,9.83,9.83,0,0,0-3.65.63,6.94,6.94,0,0,0-2.51,1.7,8.57,8.57,0,0,0-1.73,2.9,11.94,11.94,0,0,0-.67,4.16,11.85,11.85,0,0,0,.67,4.15,8.37,8.37,0,0,0,1.73,2.91,6.86,6.86,0,0,0,2.51,1.7,9.83,9.83,0,0,0,3.65.63,8.82,8.82,0,0,0,4.48-1.12,14.44,14.44,0,0,0,4.08-3.63,3.88,3.88,0,0,1,2.71-1.45,3.82,3.82,0,0,1,2.91,1l11.3,10.08a3.88,3.88,0,0,1,.49,5.28,30.38,30.38,0,0,1-11.42,9A36.86,36.86,0,0,1,375.42,63.28Zm0-55.52A30.08,30.08,0,0,0,365,9.53a24,24,0,0,0-8.1,4.92A22.35,22.35,0,0,0,351.6,22a24.19,24.19,0,0,0-1.88,9.68,24.19,24.19,0,0,0,1.88,9.68,22.21,22.21,0,0,0,5.27,7.5,23.82,23.82,0,0,0,8.1,4.93,30.08,30.08,0,0,0,10.45,1.77,29,29,0,0,0,12.22-2.42,22.57,22.57,0,0,0,6.09-4l-5.57-5a19.65,19.65,0,0,1-3.5,2.55,16.53,16.53,0,0,1-8.33,2.14,17.52,17.52,0,0,1-6.53-1.19A14.42,14.42,0,0,1,364.5,44a16.22,16.22,0,0,1-3.34-5.51A19.71,19.71,0,0,1,360,31.64a19.81,19.81,0,0,1,1.15-6.85,16.41,16.41,0,0,1,3.34-5.51,14.71,14.71,0,0,1,5.3-3.61,17.72,17.72,0,0,1,6.53-1.18,16.53,16.53,0,0,1,8.33,2.14,19.65,19.65,0,0,1,3.5,2.55l5.59-5a21.92,21.92,0,0,0-6.09-4A29.44,29.44,0,0,0,375.42,7.76Z"/><path class="cls-2" d="M436.85,59.4a34.27,34.27,0,0,1-12-2,28.26,28.26,0,0,1-9.52-5.8,26.71,26.71,0,0,1-6.26-8.84,27.21,27.21,0,0,1-2.24-11.07,27.13,27.13,0,0,1,2.24-11.11,26.75,26.75,0,0,1,6.26-8.8,28.1,28.1,0,0,1,9.52-5.8,35.94,35.94,0,0,1,23.93,0,28.41,28.41,0,0,1,9.48,5.8,26.73,26.73,0,0,1,6.25,8.8,27.13,27.13,0,0,1,2.24,11.11,27.21,27.21,0,0,1-2.24,11.07,26.68,26.68,0,0,1-6.25,8.84,28.57,28.57,0,0,1-9.48,5.8A33.81,33.81,0,0,1,436.85,59.4Zm-.08-14.49a11.81,11.81,0,0,0,4.66-.91,11.2,11.2,0,0,0,3.8-2.62,11.8,11.8,0,0,0,2.54-4.17,15.91,15.91,0,0,0,.91-5.57,16,16,0,0,0-.91-5.58,12,12,0,0,0-2.54-4.17,11.18,11.18,0,0,0-3.8-2.61,12.39,12.39,0,0,0-9.32,0,11.14,11.14,0,0,0-3.79,2.61,11.83,11.83,0,0,0-2.54,4.17,16,16,0,0,0-.92,5.58,15.91,15.91,0,0,0,.92,5.57,11.65,11.65,0,0,0,2.54,4.17A11.16,11.16,0,0,0,432.11,44,11.81,11.81,0,0,0,436.77,44.91Z"/><path class="cls-1" d="M436.85,63.28A38.28,38.28,0,0,1,423.47,61a32.37,32.37,0,0,1-10.81-6.61,30.79,30.79,0,0,1-7.16-10.1,31.22,31.22,0,0,1-2.57-12.64A31,31,0,0,1,405.51,19,30.6,30.6,0,0,1,412.66,8.9a32,32,0,0,1,10.81-6.61,39.83,39.83,0,0,1,26.65,0,32.23,32.23,0,0,1,10.76,6.59A30.82,30.82,0,0,1,468,19a31.13,31.13,0,0,1,2.57,12.68A31.22,31.22,0,0,1,468,44.28a30.59,30.59,0,0,1-7.16,10.1A32.06,32.06,0,0,1,450.12,61,37.52,37.52,0,0,1,436.85,63.28Zm-.08-55.52a30.41,30.41,0,0,0-10.59,1.8,24.41,24.41,0,0,0-8.22,5,22.94,22.94,0,0,0-5.36,7.53,23.45,23.45,0,0,0-1.91,9.54,23.55,23.55,0,0,0,1.91,9.51A22.85,22.85,0,0,0,418,48.71a24.29,24.29,0,0,0,8.22,5,30.4,30.4,0,0,0,10.67,1.81,30,30,0,0,0,10.54-1.8,24.67,24.67,0,0,0,8.2-5,22.87,22.87,0,0,0,5.35-7.56,23.42,23.42,0,0,0,1.91-9.51A23.45,23.45,0,0,0,461,22.1a23.13,23.13,0,0,0-5.36-7.53,24.45,24.45,0,0,0-8.2-5A30.26,30.26,0,0,0,436.77,7.76Zm0,41a15.9,15.9,0,0,1-6.17-1.21,15.2,15.2,0,0,1-5.09-3.52,15.66,15.66,0,0,1-3.37-5.51A19.64,19.64,0,0,1,421,31.64a19.74,19.74,0,0,1,1.16-6.92,15.75,15.75,0,0,1,3.37-5.51,15,15,0,0,1,5.09-3.51,16.37,16.37,0,0,1,12.34,0A15.13,15.13,0,0,1,448,19.21a15.87,15.87,0,0,1,3.38,5.51,20.05,20.05,0,0,1,1.15,6.92,20.05,20.05,0,0,1-1.15,6.92,15.86,15.86,0,0,1-3.37,5.5,15.05,15.05,0,0,1-5.1,3.52A15.9,15.9,0,0,1,436.77,48.79Zm0-26.54a8,8,0,0,0-3.16.6,7.47,7.47,0,0,0-2.49,1.72,8,8,0,0,0-1.7,2.84,12.11,12.11,0,0,0-.67,4.23,12.3,12.3,0,0,0,.66,4.22,8,8,0,0,0,1.71,2.84,7.23,7.23,0,0,0,2.49,1.72,8.43,8.43,0,0,0,6.32,0,7.36,7.36,0,0,0,2.5-1.72,7.92,7.92,0,0,0,1.7-2.83,12.11,12.11,0,0,0,.67-4.23,12.11,12.11,0,0,0-.67-4.23,8.07,8.07,0,0,0-1.71-2.84,7.37,7.37,0,0,0-2.49-1.72A8,8,0,0,0,436.77,22.25Z"/><path class="cls-2" d="M478.94,58.18V5.09h14.71l27,32.31h-6.82V5.09h17.44V58.18H516.56l-27-32.31h6.82V58.18Z"/><path class="cls-1" d="M531.27,62.06H516.56a3.89,3.89,0,0,1-3-1.39L500.26,44.74V58.18a3.88,3.88,0,0,1-3.88,3.88H478.94a3.88,3.88,0,0,1-3.88-3.88V5.09a3.88,3.88,0,0,1,3.88-3.88h14.71a3.89,3.89,0,0,1,3,1.39L510,18.54V5.09a3.88,3.88,0,0,1,3.88-3.88h17.44a3.88,3.88,0,0,1,3.88,3.88V58.18A3.88,3.88,0,0,1,531.27,62.06Zm-12.9-7.76h9V9h-9.68V27.83l5.92,7.08a3.88,3.88,0,0,1-3,6.37h-6.82A3.88,3.88,0,0,1,510,37.4V30.64L491.84,9h-9V54.3h9.68V35.45l-5.92-7.09a3.88,3.88,0,0,1,3-6.37h6.82a3.88,3.88,0,0,1,3.88,3.88v6.77Z"/><path class="cls-2" d="M565.4,59.4a54.22,54.22,0,0,1-12.89-1.52,36.55,36.55,0,0,1-10.24-3.94l5.76-13a37,37,0,0,0,8.46,3.53,33.23,33.23,0,0,0,9.06,1.33,18.7,18.7,0,0,0,4.06-.35,4.53,4.53,0,0,0,2.16-1,2,2,0,0,0,.68-1.56,2.53,2.53,0,0,0-1.59-2.27,16.39,16.39,0,0,0-4.21-1.4Q564,38.62,560.93,38a55,55,0,0,1-6.26-1.7,24.71,24.71,0,0,1-5.77-2.81,13.07,13.07,0,0,1-4.2-4.59,14.27,14.27,0,0,1-1.6-7.09,15.58,15.58,0,0,1,2.77-9,18.91,18.91,0,0,1,8.27-6.48,33.89,33.89,0,0,1,13.69-2.43A49.84,49.84,0,0,1,578.45,5a33.58,33.58,0,0,1,9.4,3.49l-5.39,13a39.62,39.62,0,0,0-7.62-3,27.49,27.49,0,0,0-7.16-1,14.46,14.46,0,0,0-4.1.46,4.4,4.4,0,0,0-2.16,1.21,2.53,2.53,0,0,0-.65,1.67,2.41,2.41,0,0,0,1.6,2.16,17.06,17.06,0,0,0,4.2,1.33l5.77,1.14a47.43,47.43,0,0,1,6.26,1.66A24.74,24.74,0,0,1,584.32,30a13.14,13.14,0,0,1,4.21,4.55,14,14,0,0,1,1.59,7,15.53,15.53,0,0,1-2.76,8.91,19.16,19.16,0,0,1-8.23,6.52Q573.67,59.41,565.4,59.4Z"/><path class="cls-1" d="M565.4,63.28a58.27,58.27,0,0,1-13.81-1.63,40.9,40.9,0,0,1-11.33-4.39,3.88,3.88,0,0,1-1.54-4.89l5.76-13a3.88,3.88,0,0,1,2.35-2.12,4.39,4.39,0,0,1,.52-.13c-.21-.13-.41-.25-.6-.39a16.89,16.89,0,0,1-5.44-5.91,18.19,18.19,0,0,1-2.09-9,19.52,19.52,0,0,1,3.44-11.18,22.8,22.8,0,0,1,9.91-7.84A37.87,37.87,0,0,1,567.83,0a53.51,53.51,0,0,1,11.44,1.23,37.57,37.57,0,0,1,10.48,3.89A3.88,3.88,0,0,1,591.44,10l-5.39,13a3.84,3.84,0,0,1-2.23,2.15l-.08,0a26.36,26.36,0,0,1,2.73,1.6,17.18,17.18,0,0,1,5.44,5.86A17.89,17.89,0,0,1,594,41.5a19.36,19.36,0,0,1-3.44,11.1,23,23,0,0,1-9.84,7.87A37.4,37.4,0,0,1,565.4,63.28ZM547.3,52.14a40.61,40.61,0,0,0,6.13,2,50.68,50.68,0,0,0,12,1.41,30,30,0,0,0,12.13-2.12,15.56,15.56,0,0,0,6.62-5.17,11.59,11.59,0,0,0,2.09-6.73,10.34,10.34,0,0,0-1.08-5.07,9.47,9.47,0,0,0-3-3.23,21.27,21.27,0,0,0-4.83-2.37,42.27,42.27,0,0,0-5.74-1.52q-3.17-.61-5.8-1.15a20.68,20.68,0,0,1-5.17-1.66,6.24,6.24,0,0,1-3.74-5.63,6.43,6.43,0,0,1,1.56-4.18,8.16,8.16,0,0,1,4-2.42c3.13-.94,8.41-.83,13.39.5a41.41,41.41,0,0,1,4.56,1.53l2.45-5.89a31.73,31.73,0,0,0-5.24-1.6,45.93,45.93,0,0,0-9.79-1.05,30.27,30.27,0,0,0-12.12,2.1A15.12,15.12,0,0,0,549.08,15a11.69,11.69,0,0,0-2.1,6.8,10.64,10.64,0,0,0,1.1,5.19,9.26,9.26,0,0,0,3,3.26,20.86,20.86,0,0,0,4.86,2.36,49.78,49.78,0,0,0,5.8,1.58l5.76,1.22a20.38,20.38,0,0,1,5.19,1.76,6.4,6.4,0,0,1,3.67,5.71,6,6,0,0,1-1.89,4.38,8.34,8.34,0,0,1-4,1.95,22.7,22.7,0,0,1-4.93.44,36.94,36.94,0,0,1-10.12-1.48,44,44,0,0,1-5.5-2Z"/><path class="cls-2" d="M611.89,58.18V19H596.34V5.09h49V19H629.79V58.18Z"/><path class="cls-1" d="M629.79,62.06h-17.9A3.88,3.88,0,0,1,608,58.18V22.85H596.34A3.88,3.88,0,0,1,592.46,19V5.09a3.88,3.88,0,0,1,3.88-3.88h49a3.88,3.88,0,0,1,3.88,3.88V19a3.88,3.88,0,0,1-3.88,3.88H633.67V58.18A3.87,3.87,0,0,1,629.79,62.06Zm-14-7.76h10.14V19a3.88,3.88,0,0,1,3.88-3.88h11.67V9H600.22v6.12h11.67A3.88,3.88,0,0,1,615.77,19Z"/><path class="cls-2" d="M655.65,58.18V5.09h25.56a31.26,31.26,0,0,1,12.86,2.43,19.08,19.08,0,0,1,8.38,6.94,19,19,0,0,1,3,10.66,18.66,18.66,0,0,1-3,10.58,18.79,18.79,0,0,1-8.38,6.79,32.31,32.31,0,0,1-12.86,2.34H665.59l8-7.35v20.7Zm17.9-18.73-8-8.11h14.48q3.72,0,5.5-1.67a5.93,5.93,0,0,0,1.79-4.55,5.91,5.91,0,0,0-1.79-4.55q-1.79-1.66-5.5-1.67H665.59l8-8.12Zm13.88,18.73-13-19.34h19l13.2,19.34Z"/><path class="cls-1" d="M706.54,62.06H687.43a3.88,3.88,0,0,1-3.22-1.71L677.43,50.3v7.88a3.88,3.88,0,0,1-3.88,3.88h-17.9a3.88,3.88,0,0,1-3.88-3.88V5.09a3.88,3.88,0,0,1,3.88-3.88h25.56A35.19,35.19,0,0,1,695.65,4a22.89,22.89,0,0,1,10,8.35,22.86,22.86,0,0,1,3.6,12.79,22.56,22.56,0,0,1-3.61,12.73A21.5,21.5,0,0,1,700.87,43l8.88,13a3.88,3.88,0,0,1-3.21,6.06Zm-17-7.76h9.71L694,46.68a34,34,0,0,1-8.41,1.83Zm-30,0h10.14V48.72h-4.08A3.89,3.89,0,0,1,662,46.25,3.85,3.85,0,0,1,663,42l4-3.71-4.15-4.23a3.88,3.88,0,0,1,2.77-6.59h4.08V22.78h-4.08a3.88,3.88,0,0,1-2.77-6.6L669.89,9H659.53ZM683,35h10.3a3.88,3.88,0,0,1,3.14,1.6,13.79,13.79,0,0,0,2.74-3,14.7,14.7,0,0,0,2.31-8.42,15.08,15.08,0,0,0-2.33-8.53,15.06,15.06,0,0,0-6.72-5.53A27.72,27.72,0,0,0,681.21,9H677a3.88,3.88,0,0,1,.45,1.81V15h2.64c3.48,0,6.22.91,8.15,2.71a9.74,9.74,0,0,1,3,7.39,9.75,9.75,0,0,1-3,7.38A10,10,0,0,1,683,35Zm-5.61-7.5h2.64c2,0,2.69-.48,2.85-.63s.55-.51.55-1.71-.38-1.56-.55-1.72-.82-.62-2.85-.62h-2.64Z"/><path class="cls-2" d="M743.25,59.4q-12.21,0-19-6.6t-6.82-18.51V5.09h17.9V33.76q0,6.08,2.19,8.61a8.22,8.22,0,0,0,11.88,0q2.16-2.53,2.16-8.61V5.09h17.59v29.2q0,11.91-6.82,18.51T743.25,59.4Z"/><path class="cls-1" d="M743.25,63.28c-9.15,0-16.46-2.59-21.73-7.69s-8-12.31-8-21.3V5.09a3.88,3.88,0,0,1,3.88-3.88h17.9a3.88,3.88,0,0,1,3.88,3.88V33.76c0,4.17.87,5.64,1.25,6.08a4.38,4.38,0,0,0,6,0c.37-.44,1.24-1.91,1.24-6.1V5.09a3.88,3.88,0,0,1,3.88-3.88h17.59A3.88,3.88,0,0,1,773,5.09v29.2c0,9-2.69,16.16-8,21.3S752.39,63.28,743.25,63.28ZM721.27,9V34.29c0,6.91,1.85,12.05,5.64,15.72s9.18,5.51,16.34,5.51,12.51-1.81,16.34-5.51,5.64-8.82,5.64-15.72V9H755.4V33.76c0,5.05-1,8.69-3.09,11.13a12.08,12.08,0,0,1-17.76,0c-2.12-2.45-3.14-6.09-3.14-11.15V9Z"/><path class="cls-2" d="M810.45,59.4a33.72,33.72,0,0,1-11.8-2,27.69,27.69,0,0,1-9.4-5.73,25.93,25.93,0,0,1-6.18-8.8,27.87,27.87,0,0,1-2.2-11.22,27.84,27.84,0,0,1,2.2-11.22,25.93,25.93,0,0,1,6.18-8.8,27.69,27.69,0,0,1,9.4-5.73,33.72,33.72,0,0,1,11.8-2,33.26,33.26,0,0,1,13.84,2.73,25.66,25.66,0,0,1,10,7.89L823,24.59A18.2,18.2,0,0,0,817.77,20a12.65,12.65,0,0,0-6.41-1.63,13.48,13.48,0,0,0-5.08.91,10.68,10.68,0,0,0-3.91,2.65,12.44,12.44,0,0,0-2.54,4.21,15.71,15.71,0,0,0-.91,5.5,15.75,15.75,0,0,0,.91,5.5,12.44,12.44,0,0,0,2.54,4.21A10.81,10.81,0,0,0,806.28,44a13.48,13.48,0,0,0,5.08.91,12.65,12.65,0,0,0,6.41-1.63A18.51,18.51,0,0,0,823,38.69l11.3,10.09a26.32,26.32,0,0,1-10,7.85A32.94,32.94,0,0,1,810.45,59.4Z"/><path class="cls-1" d="M810.45,63.28A37.77,37.77,0,0,1,797.31,61,31.93,31.93,0,0,1,786.6,54.5a30,30,0,0,1-7.09-10.09A32,32,0,0,1,777,31.64a32,32,0,0,1,2.52-12.77A30.05,30.05,0,0,1,786.6,8.78a31.82,31.82,0,0,1,10.7-6.53A37.87,37.87,0,0,1,810.45,0a37.23,37.23,0,0,1,15.44,3.08,29.6,29.6,0,0,1,11.46,9.06,3.88,3.88,0,0,1-.5,5.25l-11.3,10.09a3.89,3.89,0,0,1-5.63-.48,14.4,14.4,0,0,0-4.09-3.64,8.72,8.72,0,0,0-4.47-1.11,9.78,9.78,0,0,0-3.64.63,6.86,6.86,0,0,0-2.51,1.7,8.43,8.43,0,0,0-1.74,2.9,12.18,12.18,0,0,0-.67,4.16,12.08,12.08,0,0,0,.67,4.15,8.38,8.38,0,0,0,1.73,2.9,6.88,6.88,0,0,0,2.52,1.71,9.78,9.78,0,0,0,3.64.63,8.69,8.69,0,0,0,4.48-1.12,14.59,14.59,0,0,0,4.08-3.63,3.88,3.88,0,0,1,2.71-1.45,3.83,3.83,0,0,1,2.92,1l11.3,10.08a3.89,3.89,0,0,1,.48,5.28,30.45,30.45,0,0,1-11.42,9A36.9,36.9,0,0,1,810.45,63.28Zm0-55.52A30.12,30.12,0,0,0,800,9.53a24,24,0,0,0-8.1,4.92A22.39,22.39,0,0,0,786.63,22a24.19,24.19,0,0,0-1.88,9.68,24.19,24.19,0,0,0,1.88,9.68,22.15,22.15,0,0,0,5.27,7.5,23.82,23.82,0,0,0,8.1,4.93,30,30,0,0,0,10.45,1.77,29,29,0,0,0,12.22-2.42,22.57,22.57,0,0,0,6.09-4l-5.57-5a20.48,20.48,0,0,1-3.49,2.55,16.57,16.57,0,0,1-8.34,2.14,17.39,17.39,0,0,1-6.52-1.19A14.54,14.54,0,0,1,799.53,44a16.12,16.12,0,0,1-3.34-5.51A19.79,19.79,0,0,1,795,31.64a19.75,19.75,0,0,1,1.15-6.84,16.13,16.13,0,0,1,3.35-5.52,14.62,14.62,0,0,1,5.3-3.61,17.59,17.59,0,0,1,6.52-1.18,16.57,16.57,0,0,1,8.34,2.14,20,20,0,0,1,3.49,2.55l5.59-5a21.77,21.77,0,0,0-6.09-4A29.44,29.44,0,0,0,810.45,7.76Z"/><path class="cls-2" d="M856.26,58.18V19H840.71V5.09h49V19H874.15V58.18Z"/><path class="cls-1" d="M874.15,62.06H856.26a3.88,3.88,0,0,1-3.88-3.88V22.85H840.71A3.88,3.88,0,0,1,836.83,19V5.09a3.88,3.88,0,0,1,3.88-3.88h49a3.88,3.88,0,0,1,3.88,3.88V19a3.88,3.88,0,0,1-3.88,3.88H878V58.18A3.87,3.87,0,0,1,874.15,62.06Zm-14-7.76h10.13V19a3.88,3.88,0,0,1,3.88-3.88h11.67V9H844.59v6.12h11.67A3.88,3.88,0,0,1,860.14,19Z"/><path class="cls-2" d="M900,58.18V5.09h17.9V58.18Z"/><path class="cls-1" d="M917.92,62.06H900a3.87,3.87,0,0,1-3.88-3.88V5.09A3.88,3.88,0,0,1,900,1.21h17.9a3.88,3.88,0,0,1,3.88,3.88V58.18A3.88,3.88,0,0,1,917.92,62.06Zm-14-7.76H914V9H903.9Z"/><path class="cls-2" d="M960.16,59.4a34.27,34.27,0,0,1-12-2,28.26,28.26,0,0,1-9.52-5.8,26.71,26.71,0,0,1-6.26-8.84,27.21,27.21,0,0,1-2.24-11.07,27.13,27.13,0,0,1,2.24-11.11,26.75,26.75,0,0,1,6.26-8.8,28.1,28.1,0,0,1,9.52-5.8,35.91,35.91,0,0,1,23.92,0,28.16,28.16,0,0,1,9.49,5.8,26.73,26.73,0,0,1,6.25,8.8A27.13,27.13,0,0,1,990,31.64a27.21,27.21,0,0,1-2.24,11.07,26.68,26.68,0,0,1-6.25,8.84,28.32,28.32,0,0,1-9.49,5.8A33.68,33.68,0,0,1,960.16,59.4Zm-.08-14.49a11.86,11.86,0,0,0,4.67-.91,11.26,11.26,0,0,0,3.79-2.62,11.8,11.8,0,0,0,2.54-4.17,15.91,15.91,0,0,0,.91-5.57,16,16,0,0,0-.91-5.58,12,12,0,0,0-2.54-4.17,11.23,11.23,0,0,0-3.79-2.61,12.41,12.41,0,0,0-9.33,0,11.14,11.14,0,0,0-3.79,2.61,12,12,0,0,0-2.55,4.17,16.25,16.25,0,0,0-.9,5.58,16.15,16.15,0,0,0,.9,5.57,11.82,11.82,0,0,0,2.55,4.17A11.16,11.16,0,0,0,955.42,44,11.81,11.81,0,0,0,960.08,44.91Z"/><path class="cls-1" d="M960.16,63.28A38.28,38.28,0,0,1,946.78,61,32.37,32.37,0,0,1,936,54.38a30.73,30.73,0,0,1-7.16-10.1,31.22,31.22,0,0,1-2.57-12.64A31.13,31.13,0,0,1,928.81,19,30.72,30.72,0,0,1,936,8.89a32.18,32.18,0,0,1,10.81-6.6,39.83,39.83,0,0,1,26.65,0A32.21,32.21,0,0,1,984.2,8.89a30.51,30.51,0,0,1,9.72,22.75,31.28,31.28,0,0,1-2.56,12.64,30.94,30.94,0,0,1-7.16,10.1A32.4,32.4,0,0,1,973.43,61,37.52,37.52,0,0,1,960.16,63.28Zm-.08-55.52a30.45,30.45,0,0,0-10.59,1.8,24.54,24.54,0,0,0-8.22,5,23,23,0,0,0-5.36,7.54,23.28,23.28,0,0,0-1.9,9.54,23.58,23.58,0,0,0,1.9,9.51,23,23,0,0,0,5.36,7.56,24.38,24.38,0,0,0,8.22,5,30.44,30.44,0,0,0,10.67,1.81,30,30,0,0,0,10.54-1.8,24.61,24.61,0,0,0,8.2-5,23,23,0,0,0,5.35-7.56,23.42,23.42,0,0,0,1.91-9.51,22.69,22.69,0,0,0-7.26-17.08,24.59,24.59,0,0,0-8.2-5A30.22,30.22,0,0,0,960.08,7.76Zm0,41a15.85,15.85,0,0,1-6.16-1.21,15.1,15.1,0,0,1-5.1-3.52,15.87,15.87,0,0,1-3.38-5.51,20,20,0,0,1-1.15-6.91,20.05,20.05,0,0,1,1.15-6.92,16,16,0,0,1,3.38-5.51,15.07,15.07,0,0,1,5.1-3.51,16.34,16.34,0,0,1,12.33,0,15,15,0,0,1,5.09,3.51,15.87,15.87,0,0,1,3.38,5.51,20.05,20.05,0,0,1,1.15,6.92,20.05,20.05,0,0,1-1.15,6.92,16,16,0,0,1-3.38,5.51,15.22,15.22,0,0,1-5.09,3.51A15.9,15.9,0,0,1,960.08,48.79Zm0-26.54a8.16,8.16,0,0,0-3.16.6,7.47,7.47,0,0,0-2.49,1.72,8.05,8.05,0,0,0-1.7,2.84,12.11,12.11,0,0,0-.67,4.23,12.11,12.11,0,0,0,.67,4.23,8,8,0,0,0,1.7,2.83,7.33,7.33,0,0,0,2.49,1.72,8.43,8.43,0,0,0,6.32,0,7.34,7.34,0,0,0,2.49-1.71,8.07,8.07,0,0,0,1.71-2.84,12.35,12.35,0,0,0,.67-4.23,12.35,12.35,0,0,0-.67-4.23,8.06,8.06,0,0,0-1.7-2.83,7.39,7.39,0,0,0-2.5-1.73A8,8,0,0,0,960.08,22.25Z"/><path class="cls-2" d="M1002.25,58.18V5.09H1017l27,32.31h-6.82V5.09h17.44V58.18h-14.71l-27-32.31h6.83V58.18Z"/><path class="cls-1" d="M1054.58,62.06h-14.71a3.89,3.89,0,0,1-3-1.39l-13.31-15.93V58.18a3.88,3.88,0,0,1-3.88,3.88h-17.45a3.88,3.88,0,0,1-3.88-3.88V5.09a3.88,3.88,0,0,1,3.88-3.88H1017a3.88,3.88,0,0,1,3,1.39l13.32,15.94V5.09a3.88,3.88,0,0,1,3.88-3.88h17.44a3.88,3.88,0,0,1,3.88,3.88V58.18A3.88,3.88,0,0,1,1054.58,62.06Zm-12.9-7.76h9V9H1041V27.82l5.92,7.09a3.88,3.88,0,0,1-3,6.37h-6.82a3.88,3.88,0,0,1-3.88-3.88V30.64L1015.15,9h-9V54.3h9.69V35.45l-5.93-7.09a3.89,3.89,0,0,1,3-6.37h6.83a3.88,3.88,0,0,1,3.88,3.88v6.77Z"/><path class="cls-1" d="M25.86,59.4q-12.21,0-19-6.6T0,34.29V5.09H17.9V33.76q0,6.08,2.2,8.61A7.43,7.43,0,0,0,26,44.91a7.42,7.42,0,0,0,6-2.54q2.16-2.53,2.16-8.61V5.09H51.72v29.2q0,11.91-6.82,18.51T25.86,59.4Z"/><path class="cls-1" d="M65.6,58.18V5.09H80.32l27,32.31h-6.83V5.09h17.44V58.18H103.22l-27-32.31h6.83V58.18Z"/><path class="cls-1" d="M132.27,58.18V5.09h26.17a35.85,35.85,0,0,1,15.62,3.23,25,25,0,0,1,10.54,9.14,25.53,25.53,0,0,1,3.79,14.1,25.87,25.87,0,0,1-3.79,14.22A24.92,24.92,0,0,1,174.06,55a35.85,35.85,0,0,1-15.62,3.22Zm17.9-14h7.51a14.49,14.49,0,0,0,6.63-1.44,10.32,10.32,0,0,0,4.44-4.29,14,14,0,0,0,1.59-6.94,13.62,13.62,0,0,0-1.59-6.82,10.4,10.4,0,0,0-4.44-4.25,14.49,14.49,0,0,0-6.63-1.44h-7.51Z"/><path class="cls-1" d="M218.2,44.68h26.54v13.5H200.6V5.09h43.16v13.5H218.2ZM217,24.81h23.67v12.9H217Z"/><path class="cls-1" d="M257.33,58.18V5.09h25.56a31.29,31.29,0,0,1,12.86,2.43,19,19,0,0,1,8.37,6.94,18.94,18.94,0,0,1,3,10.66,18.58,18.58,0,0,1-3,10.58,18.71,18.71,0,0,1-8.37,6.79,32.35,32.35,0,0,1-12.86,2.34H267.27l8-7.35v20.7Zm17.9-18.73-8-8.11h14.48q3.72,0,5.5-1.67A5.92,5.92,0,0,0,289,25.12a5.91,5.91,0,0,0-1.78-4.55q-1.78-1.66-5.5-1.67H267.27l8-8.12Zm13.88,18.73L276.06,38.84h19l13.2,19.34Z"/><path class="cls-2" d="M375.42,59.4a33.72,33.72,0,0,1-11.8-2,27.69,27.69,0,0,1-9.4-5.73,25.8,25.8,0,0,1-6.18-8.8,27.87,27.87,0,0,1-2.2-11.22A27.84,27.84,0,0,1,348,20.42a25.8,25.8,0,0,1,6.18-8.8,27.69,27.69,0,0,1,9.4-5.73,33.72,33.72,0,0,1,11.8-2,33.26,33.26,0,0,1,13.84,2.73,25.66,25.66,0,0,1,10,7.89l-11.3,10.09A18.2,18.2,0,0,0,382.74,20a12.65,12.65,0,0,0-6.41-1.63,13.57,13.57,0,0,0-5.09.91,10.65,10.65,0,0,0-3.9,2.65,12.44,12.44,0,0,0-2.54,4.21,15.71,15.71,0,0,0-.91,5.5,15.75,15.75,0,0,0,.91,5.5,12.44,12.44,0,0,0,2.54,4.21,10.77,10.77,0,0,0,3.9,2.65,13.57,13.57,0,0,0,5.09.91,12.65,12.65,0,0,0,6.41-1.63,18.51,18.51,0,0,0,5.19-4.59l11.3,10.09a26.32,26.32,0,0,1-10,7.85A32.94,32.94,0,0,1,375.42,59.4Z"/><path class="cls-2" d="M436.85,59.4a34.27,34.27,0,0,1-12-2,28.26,28.26,0,0,1-9.52-5.8,26.71,26.71,0,0,1-6.26-8.84,27.21,27.21,0,0,1-2.24-11.07,27.13,27.13,0,0,1,2.24-11.11,26.75,26.75,0,0,1,6.26-8.8,28.1,28.1,0,0,1,9.52-5.8,35.94,35.94,0,0,1,23.93,0,28.41,28.41,0,0,1,9.48,5.8,26.73,26.73,0,0,1,6.25,8.8,27.13,27.13,0,0,1,2.24,11.11,27.21,27.21,0,0,1-2.24,11.07,26.68,26.68,0,0,1-6.25,8.84,28.57,28.57,0,0,1-9.48,5.8A33.81,33.81,0,0,1,436.85,59.4Zm-.08-14.49a11.81,11.81,0,0,0,4.66-.91,11.2,11.2,0,0,0,3.8-2.62,11.8,11.8,0,0,0,2.54-4.17,15.91,15.91,0,0,0,.91-5.57,16,16,0,0,0-.91-5.58,12,12,0,0,0-2.54-4.17,11.18,11.18,0,0,0-3.8-2.61,12.39,12.39,0,0,0-9.32,0,11.14,11.14,0,0,0-3.79,2.61,11.83,11.83,0,0,0-2.54,4.17,16,16,0,0,0-.92,5.58,15.91,15.91,0,0,0,.92,5.57,11.65,11.65,0,0,0,2.54,4.17A11.16,11.16,0,0,0,432.11,44,11.81,11.81,0,0,0,436.77,44.91Z"/><path class="cls-2" d="M478.94,58.18V5.09h14.71l27,32.31h-6.82V5.09h17.44V58.18H516.56l-27-32.31h6.82V58.18Z"/><path class="cls-2" d="M565.4,59.4a54.22,54.22,0,0,1-12.89-1.52,36.55,36.55,0,0,1-10.24-3.94l5.76-13a37,37,0,0,0,8.46,3.53,33.23,33.23,0,0,0,9.06,1.33,18.7,18.7,0,0,0,4.06-.35,4.53,4.53,0,0,0,2.16-1,2,2,0,0,0,.68-1.56,2.53,2.53,0,0,0-1.59-2.27,16.39,16.39,0,0,0-4.21-1.4Q564,38.62,560.93,38a55,55,0,0,1-6.26-1.7,24.71,24.71,0,0,1-5.77-2.81,13.07,13.07,0,0,1-4.2-4.59,14.27,14.27,0,0,1-1.6-7.09,15.58,15.58,0,0,1,2.77-9,18.91,18.91,0,0,1,8.27-6.48,33.89,33.89,0,0,1,13.69-2.43A49.84,49.84,0,0,1,578.45,5a33.58,33.58,0,0,1,9.4,3.49l-5.39,13a39.62,39.62,0,0,0-7.62-3,27.49,27.49,0,0,0-7.16-1,14.46,14.46,0,0,0-4.1.46,4.4,4.4,0,0,0-2.16,1.21,2.53,2.53,0,0,0-.65,1.67,2.41,2.41,0,0,0,1.6,2.16,17.06,17.06,0,0,0,4.2,1.33l5.77,1.14a47.43,47.43,0,0,1,6.26,1.66A24.74,24.74,0,0,1,584.32,30a13.14,13.14,0,0,1,4.21,4.55,14,14,0,0,1,1.59,7,15.53,15.53,0,0,1-2.76,8.91,19.16,19.16,0,0,1-8.23,6.52Q573.67,59.41,565.4,59.4Z"/><path class="cls-2" d="M611.89,58.18V19H596.34V5.09h49V19H629.79V58.18Z"/><path class="cls-2" d="M655.65,58.18V5.09h25.56a31.26,31.26,0,0,1,12.86,2.43,19.08,19.08,0,0,1,8.38,6.94,19,19,0,0,1,3,10.66,18.66,18.66,0,0,1-3,10.58,18.79,18.79,0,0,1-8.38,6.79,32.31,32.31,0,0,1-12.86,2.34H665.59l8-7.35v20.7Zm17.9-18.73-8-8.11h14.48q3.72,0,5.5-1.67a5.93,5.93,0,0,0,1.79-4.55,5.91,5.91,0,0,0-1.79-4.55q-1.79-1.66-5.5-1.67H665.59l8-8.12Zm13.88,18.73-13-19.34h19l13.2,19.34Z"/><path class="cls-2" d="M743.25,59.4q-12.21,0-19-6.6t-6.82-18.51V5.09h17.9V33.76q0,6.08,2.19,8.61a8.22,8.22,0,0,0,11.88,0q2.16-2.53,2.16-8.61V5.09h17.59v29.2q0,11.91-6.82,18.51T743.25,59.4Z"/><path class="cls-2" d="M810.45,59.4a33.72,33.72,0,0,1-11.8-2,27.69,27.69,0,0,1-9.4-5.73,25.93,25.93,0,0,1-6.18-8.8,27.87,27.87,0,0,1-2.2-11.22,27.84,27.84,0,0,1,2.2-11.22,25.93,25.93,0,0,1,6.18-8.8,27.69,27.69,0,0,1,9.4-5.73,33.72,33.72,0,0,1,11.8-2,33.26,33.26,0,0,1,13.84,2.73,25.66,25.66,0,0,1,10,7.89L823,24.59A18.2,18.2,0,0,0,817.77,20a12.65,12.65,0,0,0-6.41-1.63,13.48,13.48,0,0,0-5.08.91,10.68,10.68,0,0,0-3.91,2.65,12.44,12.44,0,0,0-2.54,4.21,15.71,15.71,0,0,0-.91,5.5,15.75,15.75,0,0,0,.91,5.5,12.44,12.44,0,0,0,2.54,4.21A10.81,10.81,0,0,0,806.28,44a13.48,13.48,0,0,0,5.08.91,12.65,12.65,0,0,0,6.41-1.63A18.51,18.51,0,0,0,823,38.69l11.3,10.09a26.32,26.32,0,0,1-10,7.85A32.94,32.94,0,0,1,810.45,59.4Z"/><path class="cls-2" d="M856.26,58.18V19H840.71V5.09h49V19H874.15V58.18Z"/><path class="cls-2" d="M900,58.18V5.09h17.9V58.18Z"/><path class="cls-2" d="M960.16,59.4a34.27,34.27,0,0,1-12-2,28.26,28.26,0,0,1-9.52-5.8,26.71,26.71,0,0,1-6.26-8.84,27.21,27.21,0,0,1-2.24-11.07,27.13,27.13,0,0,1,2.24-11.11,26.75,26.75,0,0,1,6.26-8.8,28.1,28.1,0,0,1,9.52-5.8,35.91,35.91,0,0,1,23.92,0,28.16,28.16,0,0,1,9.49,5.8,26.73,26.73,0,0,1,6.25,8.8A27.13,27.13,0,0,1,990,31.64a27.21,27.21,0,0,1-2.24,11.07,26.68,26.68,0,0,1-6.25,8.84,28.32,28.32,0,0,1-9.49,5.8A33.68,33.68,0,0,1,960.16,59.4Zm-.08-14.49a11.86,11.86,0,0,0,4.67-.91,11.26,11.26,0,0,0,3.79-2.62,11.8,11.8,0,0,0,2.54-4.17,15.91,15.91,0,0,0,.91-5.57,16,16,0,0,0-.91-5.58,12,12,0,0,0-2.54-4.17,11.23,11.23,0,0,0-3.79-2.61,12.41,12.41,0,0,0-9.33,0,11.14,11.14,0,0,0-3.79,2.61,12,12,0,0,0-2.55,4.17,16.25,16.25,0,0,0-.9,5.58,16.15,16.15,0,0,0,.9,5.57,11.82,11.82,0,0,0,2.55,4.17A11.16,11.16,0,0,0,955.42,44,11.81,11.81,0,0,0,960.08,44.91Z"/><path class="cls-2" d="M1002.25,58.18V5.09H1017l27,32.31h-6.82V5.09h17.44V58.18h-14.71l-27-32.31h6.83V58.18Z"/></g></g></svg>