<svg xmlns="http://www.w3.org/2000/svg" viewBox="0 0 1447.11 945.3"><defs><style>.cls-1{fill:#ffcb3d;}.cls-2{fill:#50aaf0;}.cls-3{fill:#2d2d2d;}.cls-4{fill:#ff8a15;}.cls-5{fill:#f2165a;}.cls-6{fill:#323139;}</style></defs><g id="Layer_2" data-name="Layer 2"><g id="Layer_1-2" data-name="Layer 1"><path class="cls-1" d="M1444.23,65.3V40.05c0-20.69-14.89-37.46-33.26-37.46H36.14C17.77,2.59,2.88,19.36,2.88,40.05V65.3Z"/><path class="cls-2" d="M1418.2,35.67A14.63,14.63,0,1,1,1403.58,21,14.63,14.63,0,0,1,1418.2,35.67Z"/><path class="cls-3" d="M1403.58,51.58a15.92,15.92,0,1,1,15.91-15.92A15.94,15.94,0,0,1,1403.58,51.58Zm0-29.24a13.33,13.33,0,1,0,13.33,13.32A13.35,13.35,0,0,0,1403.58,22.34Z"/><path class="cls-4" d="M1375.14,35.67A14.63,14.63,0,1,1,1360.51,21,14.63,14.63,0,0,1,1375.14,35.67Z"/><path class="cls-3" d="M1360.51,51.58a15.92,15.92,0,1,1,15.92-15.92A15.93,15.93,0,0,1,1360.51,51.58Zm0-29.24a13.33,13.33,0,1,0,13.34,13.32A13.34,13.34,0,0,0,1360.51,22.34Z"/><path class="cls-5" d="M1332.08,35.67A14.63,14.63,0,1,1,1317.45,21,14.63,14.63,0,0,1,1332.08,35.67Z"/><path class="cls-3" d="M1317.45,51.58a15.92,15.92,0,1,1,15.92-15.92A15.94,15.94,0,0,1,1317.45,51.58Zm0-29.24a13.33,13.33,0,1,0,13.33,13.32A13.34,13.34,0,0,0,1317.45,22.34Z"/><path class="cls-6" d="M1409.21,945.3H37.89A37.94,37.94,0,0,1,0,907.4V37.89A37.94,37.94,0,0,1,37.89,0H1409.21a37.94,37.94,0,0,1,37.9,37.89V907.4A37.94,37.94,0,0,1,1409.21,945.3ZM37.89,5.17A32.76,32.76,0,0,0,5.17,37.89V907.4a32.75,32.75,0,0,0,32.72,32.72H1409.21a32.76,32.76,0,0,0,32.73-32.72V37.89a32.76,32.76,0,0,0-32.73-32.72Z"/><rect class="cls-3" x="2.87" y="62.72" width="1441.36" height="5.17"/></g></g></svg>