<svg xmlns="http://www.w3.org/2000/svg" viewBox="0 0 394.85 78.35"><defs><style>.cls-1{fill:#2d2d2d;}</style></defs><g id="Layer_2" data-name="Layer 2"><g id="Layer_1-2" data-name="Layer 1"><path class="cls-1" d="M6.66,25H0L4.71,1.41h6.66ZM18,15.77H8l1.11-5.51h10ZM20.41,1.41h6.66L22.36,25H15.7Z"/><path class="cls-1" d="M39.62,25.26a11.9,11.9,0,0,1-5.1-1A7.68,7.68,0,0,1,29.93,17a10.53,10.53,0,0,1,1.38-5.4A10,10,0,0,1,35.18,7.8,11.71,11.71,0,0,1,41,6.42a10.55,10.55,0,0,1,4.79,1,7.42,7.42,0,0,1,3.1,2.81,7.88,7.88,0,0,1,1.09,4.19,10.87,10.87,0,0,1-.1,1.54c-.07.5-.16,1-.27,1.45H34.94l.61-3.36H46.61L44,15a3.89,3.89,0,0,0-.09-2.2,2.75,2.75,0,0,0-1.18-1.38,4.49,4.49,0,0,0-4.57.29,4.59,4.59,0,0,0-1.48,2.1,8.35,8.35,0,0,0-.49,2.87,3.46,3.46,0,0,0,1.05,2.78,4.7,4.7,0,0,0,3.12.89A7.36,7.36,0,0,0,42.69,20a6.24,6.24,0,0,0,2-1.09l2.65,4a11,11,0,0,1-3.71,1.82A15.49,15.49,0,0,1,39.62,25.26Z"/><path class="cls-1" d="M55.09,31.78a9.82,9.82,0,0,1-2.88-.44,6.43,6.43,0,0,1-2.27-1.14l2.86-4.51a4.71,4.71,0,0,0,1.28.76,4.06,4.06,0,0,0,1.54.28,2.72,2.72,0,0,0,1.62-.47,4.57,4.57,0,0,0,1.28-1.48l1.31-2.11.54-.64,9.18-15.3H75.8l-11.67,19a18.17,18.17,0,0,1-2.76,3.63,7.76,7.76,0,0,1-2.85,1.85A10.2,10.2,0,0,1,55.09,31.78Zm3.36-6.05-4.27-19h6.36l3,14.72Z"/><path class="cls-1" d="M73.52,30.23l4.27-8.74.67,3.77a3.57,3.57,0,0,1-2.62-1,3.32,3.32,0,0,1-1-2.5,3.8,3.8,0,0,1,1.21-3,4.13,4.13,0,0,1,2.89-1.11,3.56,3.56,0,0,1,2.61,1,3.41,3.41,0,0,1,1,2.53,4.19,4.19,0,0,1-.3,1.58,10.64,10.64,0,0,1-1.08,1.85l-3.63,5.61Z"/><path class="cls-1" d="M99.65,25l5-24.95H111l-2,9.82-1.54,5.95-1,5.08-.81,4.1Zm12.41.31a8.27,8.27,0,0,1-3.47-.69,5,5,0,0,1-2.35-2.19,7.88,7.88,0,0,1-.84-3.88,18.06,18.06,0,0,1,.57-4.6,12.57,12.57,0,0,1,1.7-3.85,8.53,8.53,0,0,1,2.77-2.65,7.34,7.34,0,0,1,3.8-1,7.66,7.66,0,0,1,3.75,1,7.48,7.48,0,0,1,2.86,2.81,8.58,8.58,0,0,1,1.09,4.49,11.05,11.05,0,0,1-.77,4.2A10.76,10.76,0,0,1,119,22.25a9.72,9.72,0,0,1-3.15,2.21A9.32,9.32,0,0,1,112.06,25.26Zm-.91-5.15a4,4,0,0,0,2.25-.64,4.37,4.37,0,0,0,1.53-1.78,6,6,0,0,0,.56-2.66,3.53,3.53,0,0,0-.91-2.54,3.36,3.36,0,0,0-2.56-1,3.91,3.91,0,0,0-2.23.65,4.39,4.39,0,0,0-1.55,1.8,6,6,0,0,0-.56,2.66,3.51,3.51,0,0,0,.91,2.52A3.39,3.39,0,0,0,111.15,20.11Z"/><path class="cls-1" d="M133.38,25.26a7.59,7.59,0,0,1-3.86-1,5.25,5.25,0,0,1-2.3-2.85,8.88,8.88,0,0,1-.13-4.67l2-10h6.39l-1.89,9.44a3.66,3.66,0,0,0,.22,2.7,2.29,2.29,0,0,0,2.1.94,3.89,3.89,0,0,0,2.71-1,5.46,5.46,0,0,0,1.5-3.08l1.81-9h6.39L144.71,25h-6.05l1-5.14.81,1.48a8.28,8.28,0,0,1-3.21,3A8.75,8.75,0,0,1,133.38,25.26Z"/><path class="cls-1" d="M159.74,25.26a7.68,7.68,0,0,1-6.59-3.81A8.58,8.58,0,0,1,152,17a11.3,11.3,0,0,1,.77-4.21A10.36,10.36,0,0,1,155,9.42a9.81,9.81,0,0,1,3.16-2.21A9.41,9.41,0,0,1,162,6.42a8.54,8.54,0,0,1,3.48.67,5,5,0,0,1,2.34,2.17,8,8,0,0,1,.84,3.92,17.93,17.93,0,0,1-.57,4.59,12.59,12.59,0,0,1-1.7,3.85,8.52,8.52,0,0,1-2.79,2.66A7.41,7.41,0,0,1,159.74,25.26ZM162,20.11a4,4,0,0,0,2.27-.64,4.43,4.43,0,0,0,1.52-1.78A6,6,0,0,0,166.3,15a3.53,3.53,0,0,0-.91-2.54,3.28,3.28,0,0,0-2.52-1,4,4,0,0,0-2.24.65,4.45,4.45,0,0,0-1.54,1.8,6,6,0,0,0-.56,2.66,3.51,3.51,0,0,0,.91,2.52A3.34,3.34,0,0,0,162,20.11ZM164.65,25l.64-3.06,1.18-6,.84-6,2-9.85h6.39l-5,25Z"/><path class="cls-1" d="M185.74,25.26a7.61,7.61,0,0,1-3.72-1,7.49,7.49,0,0,1-2.87-2.83A8.49,8.49,0,0,1,178,17a11.1,11.1,0,0,1,.77-4.21A10.19,10.19,0,0,1,181,9.42a9.7,9.7,0,0,1,3.16-2.21A9.41,9.41,0,0,1,188,6.42a8.57,8.57,0,0,1,3.48.67,5,5,0,0,1,2.33,2.17,7.88,7.88,0,0,1,.85,3.92,17.49,17.49,0,0,1-.58,4.59,12.36,12.36,0,0,1-1.7,3.85,8.59,8.59,0,0,1-2.78,2.66A7.46,7.46,0,0,1,185.74,25.26ZM188,20.11a4,4,0,0,0,2.27-.64,4.41,4.41,0,0,0,1.51-1.78,6,6,0,0,0,.55-2.66,3.57,3.57,0,0,0-.9-2.54,3.32,3.32,0,0,0-2.53-1,3.91,3.91,0,0,0-2.23.65,4.47,4.47,0,0,0-1.55,1.8,6,6,0,0,0-.55,2.66,3.5,3.5,0,0,0,.9,2.52A3.35,3.35,0,0,0,188,20.11ZM190.65,25l.64-3.06,1.17-6,.84-6,2-9.85h6.39l-5,25Z"/><path class="cls-1" d="M205.45,31.78a9.82,9.82,0,0,1-2.88-.44,6.43,6.43,0,0,1-2.27-1.14l2.86-4.51a4.71,4.71,0,0,0,1.28.76,4.06,4.06,0,0,0,1.54.28,2.72,2.72,0,0,0,1.62-.47,4.69,4.69,0,0,0,1.28-1.48l1.31-2.11.54-.64,9.18-15.3h6.25l-11.67,19a18.17,18.17,0,0,1-2.76,3.63,7.84,7.84,0,0,1-2.85,1.85A10.2,10.2,0,0,1,205.45,31.78Zm3.36-6.05-4.27-19h6.35l3,14.72Z"/><path class="cls-1" d="M230.16,25.26a3.68,3.68,0,0,1-2.62-1,3,3,0,0,1-1-2.32,3.48,3.48,0,0,1,1.16-2.67,4.05,4.05,0,0,1,2.84-1.06,3.76,3.76,0,0,1,2.63.91,3,3,0,0,1,1,2.28,3.48,3.48,0,0,1-.54,1.9,4,4,0,0,1-1.43,1.38A4,4,0,0,1,230.16,25.26Zm-1.27-8.88,1.71-15h7.64l-4.28,15Z"/><path class="cls-1" d="M257.74,25,254.85,1.41h6.56l2.45,20.38H260.4L271.16,1.41h6.15l2.26,20.38H276.3L287,1.41h6.59L281.25,25h-7.13L272,7.63h2L264.91,25Z"/><path class="cls-1" d="M309,6.42a7.52,7.52,0,0,1,3.88,1,5.35,5.35,0,0,1,2.34,2.83,8.32,8.32,0,0,1,.13,4.65l-2,10.09H307l1.89-9.48a3.62,3.62,0,0,0-.22-2.69,2.35,2.35,0,0,0-2.17-.94,3.89,3.89,0,0,0-2.72,1,5.65,5.65,0,0,0-1.55,3.1l-1.81,9H294L299,0h6.39L303,11.8l-1.18-1.44a8.06,8.06,0,0,1,3.24-3A9.06,9.06,0,0,1,309,6.42Z"/><path class="cls-1" d="M328.33,25.26a7.64,7.64,0,0,1-3.73-1,7.45,7.45,0,0,1-2.88-2.83,8.67,8.67,0,0,1-1.09-4.5,11.1,11.1,0,0,1,.77-4.21,10.36,10.36,0,0,1,2.14-3.32,9.81,9.81,0,0,1,3.16-2.21,9.32,9.32,0,0,1,3.81-.79,8,8,0,0,1,3.82.86A5,5,0,0,1,336.67,10a10.9,10.9,0,0,1,.34,5.13,15.39,15.39,0,0,1-1.45,5.34,8.93,8.93,0,0,1-3,3.52A7.42,7.42,0,0,1,328.33,25.26Zm2.22-5.15a4,4,0,0,0,2.25-.64,4.37,4.37,0,0,0,1.53-1.78,6,6,0,0,0,.56-2.66,3.53,3.53,0,0,0-.91-2.54,3.36,3.36,0,0,0-2.56-1,3.91,3.91,0,0,0-2.23.65,4.47,4.47,0,0,0-1.55,1.8,6,6,0,0,0-.56,2.66,3.51,3.51,0,0,0,.91,2.52A3.39,3.39,0,0,0,330.55,20.11ZM333.24,25l.64-3.06,1.21-6,.81-6,.64-3.12h6.38L339.29,25Z"/><path class="cls-1" d="M346.52,12.17l1-4.77h13.18l-.94,4.77ZM354,25.26a7.49,7.49,0,0,1-3.63-.83A4.65,4.65,0,0,1,348.2,22a6.77,6.77,0,0,1-.2-3.82l3.1-15.53h6.39l-3.1,15.5a2.11,2.11,0,0,0,.24,1.6,1.62,1.62,0,0,0,1.38.55,3.49,3.49,0,0,0,1-.13,4.07,4.07,0,0,0,.94-.41l.81,4.41a7.67,7.67,0,0,1-2.24.82A12.19,12.19,0,0,1,354,25.26Z"/><path class="cls-1" d="M8,71.82a7.66,7.66,0,0,1-3.73-1A7.52,7.52,0,0,1,1.39,68,8.78,8.78,0,0,1,.3,63.51a11.06,11.06,0,0,1,.78-4.2A10.11,10.11,0,0,1,3.21,56a9.93,9.93,0,0,1,3.16-2.2A9.33,9.33,0,0,1,10.19,53a7.89,7.89,0,0,1,3.82.86,5.13,5.13,0,0,1,2.34,2.75,10.81,10.81,0,0,1,.33,5.13,15.08,15.08,0,0,1-1.45,5.35,9,9,0,0,1-3,3.51A7.45,7.45,0,0,1,8,71.82Zm2.22-5.15A4,4,0,0,0,12.47,66,4.29,4.29,0,0,0,14,64.25a6,6,0,0,0,.55-2.65,3.52,3.52,0,0,0-.91-2.54,3.33,3.33,0,0,0-2.55-1,4,4,0,0,0-2.24.65,4.41,4.41,0,0,0-1.54,1.81,5.84,5.84,0,0,0-.56,2.65,3.45,3.45,0,0,0,.91,2.52A3.37,3.37,0,0,0,10.22,66.67Zm2.69,4.85.64-3.06,1.21-6,.81-6,.64-3.13H22.6L19,71.52Z"/><path class="cls-1" d="M25.59,71.52l3.63-18.23h6.06l-1,5.18L33.63,57a6.93,6.93,0,0,1,3.19-3.09A11,11,0,0,1,41.47,53l-1.11,5.75c-.27-.05-.52-.07-.74-.09h-.71a5.59,5.59,0,0,0-3.42,1,5.09,5.09,0,0,0-1.76,3.28L32,71.52Z"/><path class="cls-1" d="M53.07,71.82a11.9,11.9,0,0,1-5.1-1,8.07,8.07,0,0,1-3.38-2.9,7.94,7.94,0,0,1-1.21-4.39,10.52,10.52,0,0,1,1.38-5.39,9.9,9.9,0,0,1,3.87-3.75A11.74,11.74,0,0,1,54.41,53a10.49,10.49,0,0,1,4.8,1,7.43,7.43,0,0,1,3.09,2.8A7.91,7.91,0,0,1,63.39,61a11,11,0,0,1-.1,1.55A13.55,13.55,0,0,1,63,64H48.39L49,60.62H60.06l-2.65,1a3.84,3.84,0,0,0-.09-2.21A2.72,2.72,0,0,0,56.15,58a4.57,4.57,0,0,0-4.58.29,4.7,4.7,0,0,0-1.48,2.1,8.45,8.45,0,0,0-.49,2.88,3.43,3.43,0,0,0,1,2.77,4.68,4.68,0,0,0,3.13.89,7.44,7.44,0,0,0,2.37-.38,6.51,6.51,0,0,0,2-1.1l2.66,4a11.08,11.08,0,0,1-3.72,1.81A15.43,15.43,0,0,1,53.07,71.82Z"/><path class="cls-1" d="M81.18,78.35a9.81,9.81,0,0,1-2.87-.44A6.35,6.35,0,0,1,76,76.76l2.85-4.5a5.48,5.48,0,0,0,1.28.76,4.36,4.36,0,0,0,1.55.28,2.76,2.76,0,0,0,1.61-.47,4.68,4.68,0,0,0,1.28-1.48l1.32-2.12.53-.64,9.18-15.3h6.26l-11.67,19A18.57,18.57,0,0,1,87.47,76a8,8,0,0,1-2.86,1.85A10.42,10.42,0,0,1,81.18,78.35Zm3.37-6.06-4.28-19h6.36l3,14.73Z"/><path class="cls-1" d="M112.06,71.82a11.56,11.56,0,0,1-5-1,7.71,7.71,0,0,1-4.51-7.27A10.19,10.19,0,0,1,104,58.12a10.31,10.31,0,0,1,4-3.75A11.85,11.85,0,0,1,113.7,53a11.67,11.67,0,0,1,5.07,1,7.9,7.9,0,0,1,3.31,2.88,8,8,0,0,1,1.17,4.37,10.25,10.25,0,0,1-1.44,5.41,10.36,10.36,0,0,1-4,3.77A11.85,11.85,0,0,1,112.06,71.82Zm.37-5.08a4,4,0,0,0,2.25-.65,4.5,4.5,0,0,0,1.53-1.8,6.09,6.09,0,0,0,.55-2.69,3.63,3.63,0,0,0-.89-2.52,3.18,3.18,0,0,0-2.54-1,4.05,4.05,0,0,0-2.25.63,4.34,4.34,0,0,0-1.53,1.81,6.17,6.17,0,0,0-.55,2.7,3.64,3.64,0,0,0,.9,2.58A3.36,3.36,0,0,0,112.43,66.74Z"/><path class="cls-1" d="M134.66,71.82a7.5,7.5,0,0,1-3.86-1A5.22,5.22,0,0,1,128.5,68a8.88,8.88,0,0,1-.13-4.67l2-10.06h6.4l-1.89,9.45a3.63,3.63,0,0,0,.22,2.69,2.27,2.27,0,0,0,2.1.94,3.89,3.89,0,0,0,2.71-1,5.36,5.36,0,0,0,1.49-3.08l1.82-9h6.39L146,71.52h-6.05l1-5.15.8,1.48a8.15,8.15,0,0,1-3.21,3A8.55,8.55,0,0,1,134.66,71.82Z"/><path class="cls-1" d="M164.92,71.52l5-24.95h6.39l-5,24.95Z"/><path class="cls-1" d="M188.09,71.82a11.48,11.48,0,0,1-5-1,7.71,7.71,0,0,1-4.51-7.27A10.1,10.1,0,0,1,180,58.12a10.28,10.28,0,0,1,4-3.75A11.89,11.89,0,0,1,189.74,53a11.62,11.62,0,0,1,5.06,1,7.65,7.65,0,0,1,4.49,7.25,10.22,10.22,0,0,1-5.41,9.18A11.89,11.89,0,0,1,188.09,71.82Zm.37-5.08a4,4,0,0,0,2.25-.65,4.5,4.5,0,0,0,1.53-1.8,6.09,6.09,0,0,0,.56-2.69,3.68,3.68,0,0,0-.89-2.52,3.19,3.19,0,0,0-2.54-1,4.11,4.11,0,0,0-2.26.63,4.39,4.39,0,0,0-1.52,1.81,6.17,6.17,0,0,0-.56,2.7,3.6,3.6,0,0,0,.91,2.58A3.33,3.33,0,0,0,188.46,66.74Z"/><path class="cls-1" d="M213,71.82a11.56,11.56,0,0,1-5-1,7.68,7.68,0,0,1-4.5-7.27,10.18,10.18,0,0,1,1.44-5.39,10.38,10.38,0,0,1,4-3.75A11.86,11.86,0,0,1,214.63,53a11.65,11.65,0,0,1,5.06,1A7.84,7.84,0,0,1,223,56.89a8,8,0,0,1,1.18,4.37,10.17,10.17,0,0,1-1.45,5.41,10.29,10.29,0,0,1-4,3.77A11.85,11.85,0,0,1,213,71.82Zm.37-5.08a4,4,0,0,0,2.25-.65,4.5,4.5,0,0,0,1.53-1.8,6.09,6.09,0,0,0,.56-2.69,3.64,3.64,0,0,0-.9-2.52,3.17,3.17,0,0,0-2.53-1,4.06,4.06,0,0,0-2.26.63,4.34,4.34,0,0,0-1.53,1.81,6.17,6.17,0,0,0-.55,2.7,3.6,3.6,0,0,0,.91,2.58A3.32,3.32,0,0,0,213.35,66.74Z"/><path class="cls-1" d="M227.74,71.52l5-24.95h6.39l-5,24.95Zm6.22-3.1,1.42-7.93,8.51-7.2H252L241.8,62.07l-3.63,2.65Zm7.3,3.1-4.2-7,4.5-4.87,7.17,11.87Z"/><path class="cls-1" d="M252.7,71.52l3.63-18.23h6.35l-3.63,18.23Zm7.7-20.25a3.72,3.72,0,0,1-2.67-.92,2.93,2.93,0,0,1-1-2.24,3.4,3.4,0,0,1,1.13-2.59,4.22,4.22,0,0,1,3-1,4,4,0,0,1,2.7.87,2.8,2.8,0,0,1,1,2.19,3.47,3.47,0,0,1-1.14,2.69A4.24,4.24,0,0,1,260.4,51.27Z"/><path class="cls-1" d="M280.74,53a7.59,7.59,0,0,1,3.94,1,5.3,5.3,0,0,1,2.3,2.82,8.55,8.55,0,0,1,.12,4.66l-2,10.09h-6.39L280.57,62a3.64,3.64,0,0,0-.21-2.69,2.38,2.38,0,0,0-2.17-.94,3.92,3.92,0,0,0-2.73,1,5.57,5.57,0,0,0-1.54,3.1l-1.82,9h-6.39l3.63-18.23h6.05l-1,5.11-.8-1.48a8,8,0,0,1,3.24-3A8.91,8.91,0,0,1,280.74,53Z"/><path class="cls-1" d="M293.39,58.81l4.24-8.75.67,3.77a3.53,3.53,0,0,1-2.59-1,3.36,3.36,0,0,1-1-2.51,3.82,3.82,0,0,1,1.21-3,4.13,4.13,0,0,1,2.89-1.11,3.56,3.56,0,0,1,2.61,1,3.38,3.38,0,0,1,1,2.52,4.19,4.19,0,0,1-.3,1.58,10.81,10.81,0,0,1-1.05,1.85l-3.66,5.62Z"/><path class="cls-1" d="M316.52,58.74l1-4.78h13.18l-.94,4.78Zm.14,12.78,3.66-18.3a9,9,0,0,1,2.8-5,8.35,8.35,0,0,1,5.78-1.92,12.08,12.08,0,0,1,2.46.24,5.71,5.71,0,0,1,1.95.74l-2.46,4.47a3.41,3.41,0,0,0-1.88-.54,2.27,2.27,0,0,0-1.67.59,3.55,3.55,0,0,0-.85,1.83L326.18,55l-.34,2.56-2.79,14Z"/><path class="cls-1" d="M342,71.82a11.56,11.56,0,0,1-5-1,7.71,7.71,0,0,1-4.51-7.27,10.19,10.19,0,0,1,1.45-5.39,10.31,10.31,0,0,1,4-3.75A11.86,11.86,0,0,1,343.67,53a11.65,11.65,0,0,1,5.06,1A7.84,7.84,0,0,1,352,56.89a8,8,0,0,1,1.18,4.37,10.21,10.21,0,0,1-5.42,9.18A11.85,11.85,0,0,1,342,71.82Zm.37-5.08a4,4,0,0,0,2.25-.65,4.5,4.5,0,0,0,1.53-1.8,6.09,6.09,0,0,0,.56-2.69,3.64,3.64,0,0,0-.9-2.52,3.18,3.18,0,0,0-2.54-1,4.05,4.05,0,0,0-2.25.63,4.34,4.34,0,0,0-1.53,1.81,6.17,6.17,0,0,0-.55,2.7,3.64,3.64,0,0,0,.9,2.58A3.36,3.36,0,0,0,342.39,66.74Z"/><path class="cls-1" d="M356.78,71.52l3.63-18.23h6l-1,5.18-.6-1.48A6.89,6.89,0,0,1,368,53.9a11,11,0,0,1,4.64-.91l-1.11,5.75a7.41,7.41,0,0,0-.74-.09h-.7a5.59,5.59,0,0,0-3.42,1,5.09,5.09,0,0,0-1.76,3.28l-1.75,8.61Z"/><path class="cls-1" d="M381.56,62.94a6.06,6.06,0,0,1,.79-2,7.87,7.87,0,0,1,1.28-1.52c.48-.43,1-.84,1.48-1.22s1-.75,1.41-1.1A4.6,4.6,0,0,0,387.58,56,2.33,2.33,0,0,0,388,54.6a1.6,1.6,0,0,0-.69-1.35,3.41,3.41,0,0,0-2-.5,5.34,5.34,0,0,0-2.59.66,6.08,6.08,0,0,0-2,1.8l-4.31-2.86a10.83,10.83,0,0,1,4.22-3.52,13.93,13.93,0,0,1,6.18-1.32,11.89,11.89,0,0,1,4.3.7,6.3,6.3,0,0,1,2.8,2,4.88,4.88,0,0,1,1,3.08,5.72,5.72,0,0,1-.49,2.46,6.61,6.61,0,0,1-1.24,1.81A12.29,12.29,0,0,1,391.47,59l-1.72,1.23a9.28,9.28,0,0,0-1.43,1.25,3,3,0,0,0-.77,1.49Zm1.72,8.88a3.72,3.72,0,0,1-2.61-.94,3,3,0,0,1-1-2.32,3.49,3.49,0,0,1,1.16-2.68,4.11,4.11,0,0,1,2.87-1,3.73,3.73,0,0,1,2.61.9,3,3,0,0,1,1,2.29,3.56,3.56,0,0,1-.53,1.9,4.29,4.29,0,0,1-1.43,1.38A4,4,0,0,1,383.28,71.82Z"/></g></g></svg>