<svg id="Layer_1" data-name="Layer 1" xmlns="http://www.w3.org/2000/svg" xmlns:xlink="http://www.w3.org/1999/xlink" viewBox="0 0 2253.57 2253.57"><defs><style>.cls-1,.cls-6{fill:none;}.cls-2{fill:#ff004f;}.cls-2,.cls-3,.cls-4,.cls-6{stroke:#212b2d;stroke-miterlimit:10;}.cls-2,.cls-6{stroke-width:21px;}.cls-3{font-size:271.05px;fill:#fff;stroke-width:10px;font-family:CooperBlackStd, Cooper Std;}.cls-3,.cls-6{stroke-linecap:round;}.cls-4{fill:#ffe633;stroke-width:8px;}.cls-5{clip-path:url(#clip-path);}</style><clipPath id="clip-path"><path class="cls-1" d="M1878.61,1154.9c-15.53,415.23-364.72,739.25-779.95,723.71S359.42,1513.89,375,1098.66C382.23,904,462.88,729.31,589.3,600.32c28.27-28.84,25.25-71.14,57.78-95.13,22.32-16.46,79.14-16,103.22-29.9A748.86,748.86,0,0,1,1154.9,375c149,5.57,318.23,7.14,432.25,86.23C1791,602.57,1888.57,888.63,1878.61,1154.9Z"/></clipPath></defs><circle class="cls-2" cx="1126.78" cy="1126.78" r="1112.52"/><text class="cls-3" transform="matrix(0.37, -0.93, 0.93, 0.37, 303.11, 898.52)">L</text><text class="cls-3" transform="translate(378.54 715.63) rotate(-55.77)">a</text><text class="cls-3" transform="translate(481.93 568.37) rotate(-44.24)">z</text><text class="cls-3" transform="matrix(0.85, -0.53, 0.53, 0.85, 600.14, 453.74)">y</text><text class="cls-3" transform="translate(768.55 354.34) rotate(-22.08)"> </text><text class="cls-3" transform="translate(863.21 310.05) rotate(-10.23)">D</text><text class="cls-3" transform="translate(1105.03 272.25) rotate(4.18)">o</text><text class="cls-3" transform="translate(1293.69 288.33) rotate(16.7)">g</text><text class="cls-3" transform="translate(1467.9 341.78) rotate(29.53)">b</text><text class="cls-3" transform="translate(1639.04 440.26) rotate(43.16)">u</text><text class="cls-3" transform="translate(1790.48 585.73) rotate(56.93)">d</text><text class="cls-3" transform="matrix(0.36, 0.93, -0.93, 0.36, 1897.48, 758.22)">s</text><text class="cls-3" transform="translate(170.11 1516.81) rotate(62.76)">C</text><text class="cls-3" transform="translate(296.31 1742.69) rotate(49.51)">a</text><text class="cls-3" transform="translate(438.13 1900.23) rotate(37.97)">r</text><text class="cls-3" transform="translate(601.79 2023.07) rotate(25.61)">d</text><text class="cls-3" transform="translate(819.43 2119.41) rotate(12.86)">a</text><text class="cls-3" transform="translate(1028.54 2161.49) rotate(0.93)">n</text><text class="cls-3" transform="translate(1274.34 2156.12) rotate(-13.01)">o</text><text class="cls-3" transform="matrix(0.92, -0.39, 0.39, 0.92, 1485.25, 2099.41)"> </text><text class="cls-3" transform="translate(1612.69 2048.19) rotate(-34.81)">N</text><text class="cls-3" transform="matrix(0.64, -0.76, 0.76, 0.64, 1847.9, 1871.56)">F</text><text class="cls-3" transform="matrix(0.44, -0.9, 0.9, 0.44, 2000.58, 1681.28)">T</text><path class="cls-4" d="M2062,1184.26c-23.39-12.2-41.41-35.24-49.79-63.61a3.67,3.67,0,0,0-7.06,0c-8.38,28.37-26.4,51.41-49.79,63.61a85,85,0,0,1-8.74,3.65,3.68,3.68,0,0,0,0,6.9,87.28,87.28,0,0,1,8.74,3.65c23.39,12.21,41.41,35.24,49.79,63.62a3.67,3.67,0,0,0,7.06,0c8.38-28.38,26.4-51.41,49.79-63.62a87.28,87.28,0,0,1,8.74-3.65,3.68,3.68,0,0,0,0-6.9A85,85,0,0,1,2062,1184.26Z"/><path class="cls-4" d="M2157.27,1135.6c-16.69-8.71-29.64-25-35.94-45a3.16,3.16,0,0,0-6,0c-6.29,20.08-19.24,36.34-35.93,45a53.16,53.16,0,0,1-5.27,2.24,3.15,3.15,0,0,0,0,5.88,55.42,55.42,0,0,1,5.27,2.25c16.69,8.71,29.64,25,35.93,45a3.16,3.16,0,0,0,6,0c6.3-20.07,19.25-36.33,35.94-45a54.32,54.32,0,0,1,5.27-2.25,3.15,3.15,0,0,0,0-5.88A52.15,52.15,0,0,1,2157.27,1135.6Z"/><path class="cls-4" d="M2077.69,1069.67c-11-5.75-19.66-16.3-24.14-29.36a2.71,2.71,0,0,0-5.15,0c-4.48,13.06-13.12,23.61-24.14,29.36-.62.32-1.45.68-2.36,1a2.7,2.7,0,0,0,0,5c.91.36,1.74.73,2.36,1,11,5.75,19.66,16.3,24.14,29.36a2.72,2.72,0,0,0,5.15,0c4.48-13.06,13.12-23.61,24.14-29.36.62-.32,1.45-.69,2.36-1a2.7,2.7,0,0,0,0-5C2079.14,1070.35,2078.31,1070,2077.69,1069.67Z"/><path class="cls-4" d="M206.79,1184.26c-23.39-12.2-41.41-35.24-49.79-63.61a3.67,3.67,0,0,0-7.06,0c-8.38,28.37-26.4,51.41-49.79,63.61a85,85,0,0,1-8.74,3.65,3.68,3.68,0,0,0,0,6.9,87.28,87.28,0,0,1,8.74,3.65c23.39,12.21,41.41,35.24,49.79,63.62a3.67,3.67,0,0,0,7.06,0c8.38-28.38,26.4-51.41,49.79-63.62a87.28,87.28,0,0,1,8.74-3.65,3.68,3.68,0,0,0,0-6.9A85,85,0,0,1,206.79,1184.26Z"/><path class="cls-4" d="M302.11,1135.6c-16.69-8.71-29.64-25-35.94-45a3.15,3.15,0,0,0-6,0c-6.3,20.08-19.25,36.34-35.94,45a53.16,53.16,0,0,1-5.27,2.24,3.15,3.15,0,0,0,0,5.88,55.42,55.42,0,0,1,5.27,2.25c16.69,8.71,29.64,25,35.94,45a3.15,3.15,0,0,0,6,0c6.3-20.07,19.25-36.33,35.94-45a54.32,54.32,0,0,1,5.27-2.25,3.15,3.15,0,0,0,0-5.88A52.15,52.15,0,0,1,302.11,1135.6Z"/><path class="cls-4" d="M222.53,1069.67c-11-5.75-19.66-16.3-24.14-29.36a2.71,2.71,0,0,0-5.14,0c-4.48,13.06-13.13,23.61-24.14,29.36-.62.32-1.46.68-2.37,1a2.7,2.7,0,0,0,0,5c.91.36,1.75.73,2.37,1,11,5.75,19.66,16.3,24.14,29.36a2.71,2.71,0,0,0,5.14,0c4.48-13.06,13.12-23.61,24.14-29.36.62-.32,1.45-.69,2.36-1a2.7,2.7,0,0,0,0-5C224,1070.35,223.15,1070,222.53,1069.67Z"/><g class="cls-5"><image width="7362" height="7362" transform="matrix(0.3, 0, 0, 0.3, -0.53, 171.24)" xlink:href="Bahan%20Logo.png"/></g><path class="cls-6" d="M1665.93,602c138.46,142.3,220.69,338.81,212.68,552.87-15.53,415.23-364.72,739.25-779.95,723.71S359.42,1513.89,375,1098.66C382.26,903.21,463.5,728,590.76,598.83"/><path class="cls-6" d="M775.77,461.18a754,754,0,0,1,668.69-16.61"/></svg>